<svg id="svg" version="1.1" xmlns="http://www.w3.org/2000/svg" xmlns:xlink="http://www.w3.org/1999/xlink" width="400" height="400" viewBox="0, 0, 400,400"><g id="svgg"><path id="path0" d="M192.704 12.067 C 191.987 12.214,188.790 12.536,185.600 12.784 C 179.796 13.234,176.126 13.665,172.000 14.382 C 170.790 14.592,169.170 14.871,168.400 15.001 C 167.630 15.132,166.235 15.410,165.300 15.619 C 164.365 15.829,162.790 16.180,161.800 16.400 C 87.587 32.892,31.425 90.834,17.183 165.600 C 16.420 169.607,15.987 172.519,15.162 179.200 C 14.056 188.154,13.882 207.410,14.824 216.600 C 20.798 274.892,51.226 324.953,100.113 356.918 C 102.706 358.613,104.892 360.000,104.973 360.000 C 105.053 360.000,106.262 360.692,107.659 361.539 C 125.593 372.399,152.921 381.867,174.800 384.800 C 181.831 385.743,184.585 385.989,193.125 386.439 C 260.625 389.995,328.932 353.111,362.278 295.100 C 363.005 293.835,364.250 291.675,365.044 290.300 C 392.276 243.170,395.934 184.593,375.080 129.600 C 354.158 74.428,299.484 28.280,241.000 16.427 C 239.680 16.159,237.970 15.783,237.200 15.591 C 236.430 15.399,235.080 15.125,234.200 14.983 C 233.320 14.840,231.700 14.550,230.600 14.337 C 223.152 12.898,196.458 11.298,192.704 12.067 M289.500 100.062 C 292.388 101.847,292.381 101.790,292.391 123.886 C 292.401 145.901,292.446 145.494,289.557 149.600 C 287.612 152.365,285.854 153.566,283.358 153.836 C 279.142 154.292,277.214 151.640,275.128 142.517 C 273.026 133.331,264.300 123.648,256.955 122.355 C 255.281 122.060,253.836 121.544,253.273 121.040 L 252.347 120.210 251.610 121.186 C 251.206 121.723,249.914 122.621,248.741 123.181 C 246.500 124.251,245.175 125.804,244.327 128.353 C 243.630 130.451,243.336 204.075,244.013 207.200 C 244.906 211.325,246.800 213.200,250.071 213.200 C 252.021 213.200,253.046 213.772,253.294 215.000 C 253.424 215.646,253.579 215.516,254.099 214.319 C 254.666 213.015,255.020 212.760,257.071 212.173 C 266.927 209.354,274.035 202.088,277.782 191.001 C 280.124 184.071,284.621 181.130,289.206 183.530 C 297.281 187.757,288.713 209.086,273.800 221.882 C 267.001 227.716,256.230 231.837,253.246 229.747 C 252.355 229.123,252.276 229.142,251.446 230.184 C 249.547 232.565,235.536 232.655,228.600 230.331 C 209.302 223.863,200.159 206.934,200.227 177.800 C 200.294 149.389,209.578 128.602,228.800 113.819 C 237.070 107.459,250.714 102.524,252.824 105.130 L 253.492 105.955 253.937 104.978 C 254.743 103.209,264.739 103.759,272.397 105.992 C 275.592 106.924,277.502 106.560,278.373 104.853 C 280.898 99.903,285.816 97.785,289.500 100.062 M187.894 115.871 C 190.918 117.306,191.000 117.869,191.000 137.200 C 191.000 156.194,191.061 155.709,188.173 159.552 C 185.278 163.403,181.617 164.441,178.200 162.379 C 176.945 161.621,176.139 159.877,174.398 154.151 C 172.905 149.237,168.036 140.778,166.066 139.674 C 164.315 138.692,158.642 137.045,155.546 136.620 C 154.465 136.471,153.393 136.035,152.975 135.573 C 152.265 134.788,152.245 134.793,150.923 136.074 C 150.189 136.786,148.556 137.925,147.294 138.606 C 144.278 140.234,143.006 142.376,143.098 145.673 C 143.241 150.834,146.209 153.606,154.400 156.229 C 177.841 163.734,177.459 163.558,183.395 169.610 C 191.869 178.249,194.800 184.913,194.800 195.540 C 194.800 214.637,182.546 233.477,164.600 241.972 C 158.179 245.011,150.601 247.000,148.954 246.078 C 148.374 245.754,147.898 245.845,146.876 246.477 C 144.223 248.116,137.303 247.813,130.886 245.776 C 129.201 245.242,126.986 244.693,125.963 244.557 L 124.104 244.311 121.498 246.917 C 116.749 251.666,112.759 251.861,110.525 247.452 L 109.517 245.462 109.567 227.831 C 109.629 205.794,110.255 202.667,115.169 199.835 C 119.702 197.222,122.496 199.166,125.192 206.809 C 130.474 221.787,137.722 229.600,146.336 229.600 C 146.933 229.600,147.845 229.896,148.362 230.259 C 149.233 230.869,149.330 230.869,149.670 230.262 C 149.871 229.901,151.577 228.840,153.461 227.903 C 159.190 225.054,161.200 222.765,161.200 219.088 C 161.200 213.602,156.904 210.428,144.600 206.828 C 142.180 206.120,139.840 205.380,139.400 205.184 C 138.960 204.988,137.450 204.451,136.044 203.991 C 126.345 200.815,116.595 192.991,112.965 185.470 C 104.200 167.311,112.410 139.716,130.065 127.989 C 138.438 122.427,151.329 118.205,152.930 120.500 C 153.398 121.171,153.563 121.239,153.579 120.768 C 153.658 118.395,163.632 118.323,172.345 120.632 C 176.588 121.757,177.240 121.675,178.354 119.879 C 180.861 115.838,184.553 114.286,187.894 115.871 M131.791 270.069 C 134.194 271.163,133.455 274.661,130.857 274.493 C 128.704 274.353,128.758 274.826,131.022 275.926 C 132.036 276.418,133.144 277.339,133.522 278.003 C 134.250 279.282,135.200 279.602,135.200 278.568 C 135.200 277.499,137.604 271.059,138.283 270.308 C 139.035 269.477,141.523 269.355,142.507 270.100 C 142.870 270.375,143.966 272.850,144.944 275.600 C 145.922 278.350,146.848 280.914,147.003 281.298 C 147.656 282.919,148.000 281.231,148.000 276.405 C 148.000 270.703,148.519 269.600,151.200 269.600 C 152.324 269.600,154.400 270.941,154.400 271.667 C 154.400 272.260,155.988 274.400,156.427 274.400 C 156.632 274.400,156.800 273.737,156.800 272.926 C 156.800 270.313,159.385 268.642,160.971 270.229 C 161.483 270.741,161.600 271.903,161.600 276.495 C 161.600 279.596,161.735 281.998,161.900 281.833 C 162.065 281.668,162.138 279.848,162.061 277.788 C 161.863 272.428,162.186 270.931,163.710 270.143 C 166.260 268.824,172.911 270.166,174.011 272.221 C 174.689 273.487,175.108 273.457,175.686 272.100 C 176.714 269.688,178.805 268.760,179.991 270.189 C 180.847 271.221,180.626 284.845,179.743 285.491 C 177.917 286.827,176.227 285.943,175.686 283.369 L 175.356 281.800 173.978 283.256 C 172.048 285.296,171.402 285.537,167.297 285.751 C 163.202 285.964,162.656 285.740,162.061 283.600 C 161.733 282.417,161.665 282.355,161.623 283.200 C 161.407 287.632,156.808 286.800,153.813 281.787 L 152.626 279.800 152.378 282.536 C 152.075 285.881,152.055 285.894,147.275 285.842 L 143.411 285.800 142.844 284.600 C 141.749 282.284,137.600 282.125,137.600 284.400 C 137.600 285.798,134.583 286.526,133.457 285.400 C 132.779 284.721,131.942 284.626,131.380 285.163 C 129.109 287.331,123.191 285.979,123.114 283.275 C 123.057 281.249,123.748 280.769,126.347 281.030 C 128.839 281.280,128.645 280.763,125.627 279.109 C 119.868 275.952,125.754 267.318,131.791 270.069 M202.599 271.299 C 203.317 272.643,204.800 273.406,204.800 272.431 C 204.800 270.491,206.653 269.752,211.672 269.690 C 219.713 269.591,222.003 270.873,221.449 275.163 C 221.215 276.977,221.665 278.468,222.266 277.868 C 222.436 277.698,222.599 276.353,222.628 274.879 C 222.722 270.200,223.294 269.630,227.926 269.613 C 231.923 269.597,232.800 269.970,232.800 271.683 C 232.800 273.521,231.809 274.400,229.738 274.400 C 228.782 274.400,228.000 274.580,228.000 274.800 C 228.000 275.020,228.684 275.200,229.520 275.200 C 231.349 275.200,232.000 275.764,232.000 277.349 C 232.000 278.962,230.968 280.000,229.362 280.000 C 228.639 280.000,227.935 280.181,227.798 280.403 C 227.411 281.030,228.543 281.333,232.100 281.556 C 233.024 281.614,233.077 284.466,232.171 285.371 C 230.486 287.057,222.937 285.987,222.541 284.007 C 222.272 282.659,221.770 282.434,221.429 283.508 C 220.993 284.882,218.639 285.721,215.102 285.762 C 210.103 285.820,210.400 286.231,210.400 279.236 C 210.400 275.942,210.249 273.154,210.065 273.040 C 209.274 272.551,206.400 279.501,206.400 281.902 C 206.400 285.432,205.315 286.502,202.500 285.748 C 201.696 285.532,201.600 285.256,201.600 283.155 C 201.600 279.201,199.370 274.876,197.331 274.877 C 196.489 274.878,195.205 274.749,194.478 274.590 C 191.614 273.967,190.303 277.356,192.254 280.337 C 192.833 281.222,193.023 281.259,195.634 280.997 L 198.400 280.719 198.400 282.186 C 198.400 287.584,189.630 287.539,186.849 282.126 C 186.193 280.850,186.298 276.220,187.021 274.487 C 188.647 270.594,190.640 269.645,196.999 269.733 L 201.799 269.800 202.599 271.299 M242.572 270.388 C 245.234 271.529,245.848 273.663,244.586 277.379 C 243.669 280.083,245.184 282.863,246.785 281.414 C 248.285 280.056,251.200 280.755,251.200 282.473 C 251.200 282.899,251.380 283.136,251.600 283.000 C 251.836 282.854,252.000 280.456,252.000 277.158 C 252.000 271.752,252.033 271.531,252.982 270.582 C 254.861 268.703,257.006 269.411,259.001 272.568 C 260.429 274.826,260.720 274.853,260.877 272.740 C 261.038 270.570,262.606 269.237,264.299 269.831 L 265.400 270.218 265.600 276.209 C 265.828 283.041,266.316 283.658,266.226 277.000 C 266.163 272.262,266.471 270.639,267.528 270.158 C 269.236 269.380,287.563 269.583,287.992 270.385 C 289.059 272.378,288.041 274.400,285.971 274.400 L 284.800 274.400 284.765 277.700 C 284.687 285.218,284.426 286.008,282.024 285.994 C 280.151 285.983,280.029 285.658,279.861 280.254 C 279.666 273.986,279.724 274.042,273.700 274.321 C 271.895 274.405,271.285 275.200,273.026 275.200 C 274.787 275.200,275.600 275.891,275.600 277.386 C 275.600 279.187,274.711 280.000,272.742 280.000 C 269.940 280.000,270.803 281.368,273.701 281.520 C 276.197 281.650,276.796 282.367,276.245 284.563 C 275.741 286.571,267.118 286.489,266.350 284.469 L 265.946 283.406 265.281 284.502 C 263.663 287.168,260.753 286.358,258.575 282.635 C 256.680 279.396,256.400 279.362,256.400 282.371 C 256.400 284.922,255.789 286.000,254.345 286.000 C 253.094 286.000,252.000 285.247,252.000 284.386 C 252.000 283.299,251.441 283.403,250.794 284.611 C 250.144 285.825,248.660 286.273,247.162 285.708 C 246.395 285.418,245.569 285.426,244.415 285.734 C 242.335 286.289,241.733 285.936,240.407 283.384 C 239.052 280.776,238.400 280.632,238.400 282.938 C 238.400 285.725,235.289 287.243,233.938 285.114 C 233.474 284.382,233.521 272.659,233.994 271.415 C 234.731 269.476,239.197 268.942,242.572 270.388 M164.000 276.976 C 164.000 283.179,164.718 283.369,164.876 277.208 C 164.970 273.561,164.879 272.399,164.500 272.399 C 164.129 272.400,164.000 273.582,164.000 276.976 M212.252 273.300 C 211.880 274.689,211.968 277.732,212.400 278.400 C 212.883 279.148,212.931 278.891,212.969 275.301 C 213.000 272.408,212.709 271.596,212.252 273.300 M224.800 277.867 C 224.800 280.873,224.914 283.219,225.054 283.080 C 225.497 282.637,225.637 272.400,225.200 272.400 C 224.953 272.400,224.800 274.487,224.800 277.867 M235.898 272.933 C 235.472 273.980,235.529 281.109,235.965 281.378 C 236.550 281.740,236.801 278.860,236.486 275.400 C 236.302 273.370,236.087 272.468,235.898 272.933 M268.006 276.500 C 268.012 280.589,268.698 283.526,268.871 280.200 C 269.120 275.377,268.979 272.401,268.500 272.400 C 268.132 272.400,268.002 273.483,268.006 276.500 M281.896 276.700 C 282.160 282.119,282.400 282.499,282.400 277.499 C 282.400 275.391,282.509 273.381,282.643 273.033 C 282.798 272.629,282.668 272.400,282.286 272.400 C 281.777 272.400,281.718 273.052,281.896 276.700 M125.491 273.973 C 125.352 274.505,125.385 275.201,125.564 275.521 C 126.065 276.417,126.406 275.480,126.055 274.169 C 125.746 273.015,125.742 273.013,125.491 273.973 M178.140 276.400 C 178.140 278.270,178.209 279.035,178.293 278.100 C 178.377 277.165,178.377 275.635,178.293 274.700 C 178.209 273.765,178.140 274.530,178.140 276.400 M189.346 274.300 C 188.352 275.765,188.377 280.555,189.384 281.543 C 190.007 282.155,190.030 282.118,189.726 281.000 C 189.240 279.213,189.528 275.170,190.216 274.120 C 190.547 273.614,190.655 273.200,190.455 273.200 C 190.255 273.200,189.756 273.695,189.346 274.300 M242.439 275.000 C 242.452 276.396,242.507 276.490,242.870 275.741 C 243.160 275.141,243.156 274.658,242.855 274.141 C 242.497 273.525,242.427 273.669,242.439 275.000 M167.280 274.880 C 166.653 275.507,166.653 280.093,167.280 280.720 C 168.089 281.529,169.535 281.271,170.242 280.192 C 171.921 277.630,169.275 272.885,167.280 274.880 M238.875 274.825 C 238.971 275.114,239.286 275.429,239.575 275.525 C 239.875 275.625,240.025 275.475,239.925 275.175 C 239.829 274.886,239.514 274.571,239.225 274.475 C 238.925 274.375,238.775 274.525,238.875 274.825 M172.819 276.800 C 172.798 277.790,172.615 279.315,172.413 280.189 C 171.981 282.049,172.177 282.448,172.991 281.371 C 173.630 280.527,173.758 277.100,173.200 275.800 C 172.937 275.187,172.847 275.422,172.819 276.800 M203.386 278.423 C 203.242 278.655,203.242 279.314,203.386 279.887 L 203.648 280.930 204.224 279.819 C 205.058 278.211,204.299 276.946,203.386 278.423 M130.645 280.001 C 131.073 282.260,131.490 282.777,131.821 281.458 C 132.040 280.586,131.908 280.130,131.243 279.465 L 130.381 278.603 130.645 280.001 M143.200 279.976 C 143.200 280.429,143.380 280.800,143.600 280.800 C 143.820 280.800,144.000 280.541,144.000 280.224 C 144.000 279.907,143.820 279.536,143.600 279.400 C 143.380 279.264,143.200 279.523,143.200 279.976 M136.400 280.800 C 136.144 281.278,136.025 281.759,136.135 281.869 C 136.245 281.979,136.544 281.678,136.800 281.200 C 137.056 280.722,137.175 280.241,137.065 280.131 C 136.955 280.021,136.656 280.322,136.400 280.800 M215.200 280.557 C 215.200 281.235,216.282 281.715,216.611 281.183 C 216.741 280.972,216.736 280.620,216.600 280.400 C 216.230 279.802,215.200 279.918,215.200 280.557 M219.467 280.267 C 219.052 280.682,219.153 282.000,219.600 282.000 C 219.820 282.000,220.000 281.550,220.000 281.000 C 220.000 279.953,219.908 279.826,219.467 280.267 " stroke="none" fill="#fbfbfb" fill-rule="evenodd"></path><path id="path1" d="M192.200 11.200 C 191.540 11.368,195.590 11.524,201.200 11.547 C 207.916 11.574,211.195 11.455,210.800 11.200 C 210.096 10.745,193.988 10.745,192.200 11.200 M180.600 12.000 C 180.447 12.248,181.188 12.400,182.553 12.400 C 183.763 12.400,184.864 12.220,185.000 12.000 C 185.153 11.752,184.412 11.600,183.047 11.600 C 181.837 11.600,180.736 11.780,180.600 12.000 M218.200 12.000 C 218.336 12.220,219.617 12.400,221.047 12.400 C 222.679 12.400,223.555 12.251,223.400 12.000 C 223.264 11.780,221.983 11.600,220.553 11.600 C 218.921 11.600,218.045 11.749,218.200 12.000 M173.000 12.800 C 172.846 13.050,173.655 13.200,175.153 13.200 C 176.473 13.200,177.664 13.020,177.800 12.800 C 177.954 12.550,177.145 12.400,175.647 12.400 C 174.327 12.400,173.136 12.580,173.000 12.800 M225.200 12.800 C 225.200 13.026,226.341 13.200,227.824 13.200 C 229.471 13.200,230.355 13.051,230.200 12.800 C 230.064 12.580,228.883 12.400,227.576 12.400 C 226.259 12.400,225.200 12.578,225.200 12.800 M168.200 13.600 C 168.048 13.847,168.729 14.000,169.976 14.000 C 171.089 14.000,172.000 13.820,172.000 13.600 C 172.000 13.380,171.201 13.200,170.224 13.200 C 169.247 13.200,168.336 13.380,168.200 13.600 M230.977 13.562 C 231.125 13.803,232.126 14.000,233.200 14.000 C 234.274 14.000,235.264 14.180,235.400 14.400 C 235.536 14.620,236.526 14.800,237.600 14.800 C 238.674 14.800,239.664 14.980,239.800 15.200 C 239.936 15.420,240.631 15.600,241.344 15.600 C 242.057 15.600,242.811 15.756,243.020 15.946 C 243.229 16.136,244.300 16.500,245.400 16.756 C 251.066 18.073,265.808 22.863,270.893 25.040 C 272.641 25.788,274.248 26.400,274.466 26.400 C 275.106 26.400,289.333 33.388,293.325 35.663 C 312.443 46.559,331.489 62.271,344.404 77.800 C 346.051 79.780,347.501 81.490,347.626 81.600 C 347.752 81.710,349.211 83.600,350.870 85.800 C 410.629 165.068,399.321 275.604,324.768 340.941 C 304.703 358.526,278.685 372.816,254.400 379.591 C 253.410 379.867,252.150 380.246,251.600 380.434 C 251.050 380.621,247.990 381.402,244.800 382.168 C 236.766 384.098,228.674 385.359,215.123 386.790 C 210.152 387.316,193.657 387.320,188.314 386.798 C 178.707 385.858,175.614 385.505,172.400 384.981 C 170.530 384.676,168.280 384.320,167.400 384.190 C 165.597 383.923,164.721 383.732,157.400 382.007 C 154.540 381.333,151.750 380.626,151.200 380.437 C 150.650 380.248,149.390 379.866,148.400 379.588 C 115.294 370.299,83.468 349.879,59.743 322.703 C 55.903 318.305,54.167 316.107,47.965 307.800 C 37.668 294.005,26.084 270.042,21.185 252.400 C 20.910 251.410,20.440 249.826,20.140 248.881 C 18.910 244.994,15.595 228.673,14.802 222.600 C 12.688 206.405,13.106 184.396,15.803 170.000 C 16.112 168.350,16.646 165.501,16.989 163.670 C 20.572 144.539,28.023 124.428,38.132 106.600 C 60.786 66.649,99.151 35.200,142.200 21.292 C 150.562 18.591,156.238 16.908,158.104 16.576 C 158.932 16.430,159.707 16.150,159.828 15.955 C 159.949 15.760,160.757 15.600,161.624 15.600 C 162.491 15.600,163.200 15.420,163.200 15.200 C 163.200 14.980,164.190 14.800,165.400 14.800 C 166.610 14.800,167.600 14.620,167.600 14.400 C 167.600 14.167,166.267 14.000,164.400 14.000 C 162.533 14.000,161.200 14.167,161.200 14.400 C 161.200 14.625,160.075 14.800,158.624 14.800 C 157.207 14.800,155.936 14.980,155.800 15.200 C 155.664 15.420,154.404 15.600,153.000 15.600 C 151.596 15.600,150.336 15.780,150.200 16.000 C 150.064 16.220,149.344 16.400,148.600 16.400 C 147.856 16.400,147.136 16.580,147.000 16.800 C 146.864 17.020,146.223 17.200,145.576 17.200 C 144.929 17.200,144.400 17.380,144.400 17.600 C 144.400 17.820,143.680 18.000,142.800 18.000 C 141.920 18.000,141.200 18.180,141.200 18.400 C 141.200 18.620,140.671 18.800,140.024 18.800 C 139.377 18.800,138.736 18.980,138.600 19.200 C 138.464 19.420,137.924 19.600,137.400 19.600 C 136.876 19.600,136.336 19.780,136.200 20.000 C 136.064 20.220,135.511 20.400,134.971 20.400 C 134.431 20.400,133.632 20.580,133.195 20.800 C 132.758 21.020,132.042 21.380,131.605 21.600 C 131.168 21.820,130.448 22.000,130.005 22.000 C 129.562 22.000,129.200 22.180,129.200 22.400 C 129.200 22.620,128.761 22.800,128.224 22.800 C 127.687 22.800,127.136 22.980,127.000 23.200 C 126.864 23.420,126.403 23.600,125.976 23.600 C 125.549 23.600,125.200 23.780,125.200 24.000 C 125.200 24.220,124.840 24.400,124.400 24.400 C 123.960 24.400,123.600 24.580,123.600 24.800 C 123.600 25.020,123.240 25.200,122.800 25.200 C 122.360 25.200,122.000 25.380,122.000 25.600 C 122.000 25.820,121.561 26.000,121.024 26.000 C 120.487 26.000,119.936 26.180,119.800 26.400 C 119.664 26.620,119.203 26.800,118.776 26.800 C 118.349 26.800,118.000 26.980,118.000 27.200 C 118.000 27.420,117.640 27.600,117.200 27.600 C 116.760 27.600,116.400 27.780,116.400 28.000 C 116.400 28.220,116.040 28.400,115.600 28.400 C 115.160 28.400,114.800 28.580,114.800 28.800 C 114.800 29.020,114.455 29.200,114.033 29.200 C 113.612 29.200,113.207 29.342,113.133 29.515 C 113.060 29.688,111.964 30.331,110.698 30.945 C 109.432 31.558,108.172 32.272,107.898 32.530 C 107.472 32.932,104.495 34.568,101.303 36.154 C 100.810 36.399,100.405 36.735,100.403 36.900 C 100.401 37.065,100.175 37.200,99.900 37.201 C 99.625 37.201,98.770 37.741,98.000 38.400 C 97.230 39.059,96.415 39.599,96.188 39.599 C 95.962 39.600,95.517 39.960,95.200 40.400 C 94.883 40.840,94.343 41.200,94.000 41.200 C 93.657 41.200,93.117 41.560,92.800 42.000 C 92.483 42.440,92.020 42.800,91.771 42.800 C 91.522 42.800,90.754 43.340,90.063 44.000 C 89.372 44.660,88.647 45.200,88.452 45.200 C 88.256 45.200,87.355 45.920,86.448 46.800 C 85.541 47.680,84.653 48.400,84.475 48.400 C 84.297 48.400,83.802 48.720,83.375 49.111 C 82.949 49.502,81.970 50.260,81.200 50.795 C 80.430 51.331,79.323 52.271,78.740 52.885 C 78.156 53.498,77.516 54.000,77.318 54.000 C 77.119 54.000,75.878 55.035,74.559 56.300 C 73.241 57.565,71.496 59.104,70.681 59.720 C 69.867 60.337,69.200 61.063,69.200 61.334 C 69.200 61.605,68.660 62.146,68.000 62.536 C 67.340 62.926,66.800 63.414,66.800 63.620 C 66.800 63.826,65.360 65.448,63.600 67.224 C 61.840 69.001,60.400 70.621,60.400 70.824 C 60.400 71.028,59.140 72.469,57.600 74.028 C 56.060 75.586,54.800 77.045,54.800 77.270 C 54.800 77.495,54.298 78.156,53.685 78.740 C 53.071 79.323,52.127 80.430,51.587 81.200 C 51.046 81.970,49.928 83.297,49.102 84.148 C 48.276 85.000,47.600 85.945,47.600 86.248 C 47.600 86.552,47.420 86.800,47.200 86.800 C 46.980 86.800,46.800 87.025,46.799 87.300 C 46.799 87.575,46.259 88.430,45.600 89.200 C 44.941 89.970,44.401 90.825,44.401 91.100 C 44.400 91.375,44.250 91.600,44.068 91.600 C 43.885 91.600,43.481 92.095,43.170 92.700 C 42.860 93.305,42.289 94.091,41.903 94.447 C 41.516 94.803,41.200 95.348,41.200 95.659 C 41.200 95.969,40.840 96.483,40.400 96.800 C 39.960 97.117,39.600 97.614,39.600 97.905 C 39.600 98.196,39.240 98.820,38.800 99.292 C 38.360 99.764,38.000 100.387,38.000 100.675 C 38.000 100.964,37.820 101.200,37.600 101.200 C 37.380 101.200,37.200 101.520,37.200 101.912 C 37.200 102.303,36.840 102.883,36.400 103.200 C 35.960 103.517,35.600 104.097,35.600 104.488 C 35.600 104.880,35.420 105.200,35.200 105.200 C 34.980 105.200,34.800 105.545,34.800 105.967 C 34.800 106.388,34.665 106.793,34.500 106.867 C 34.124 107.034,32.825 109.164,32.529 110.100 C 32.407 110.485,32.148 110.800,31.953 110.800 C 31.759 110.800,31.600 111.160,31.600 111.600 C 31.600 112.040,31.420 112.400,31.200 112.400 C 30.980 112.400,30.800 112.760,30.800 113.200 C 30.800 113.640,30.620 114.000,30.400 114.000 C 30.180 114.000,30.000 114.360,30.000 114.800 C 30.000 115.240,29.820 115.600,29.600 115.600 C 29.380 115.600,29.200 115.960,29.200 116.400 C 29.200 116.840,29.020 117.200,28.800 117.200 C 28.580 117.200,28.400 117.549,28.400 117.976 C 28.400 118.403,28.220 118.864,28.000 119.000 C 27.780 119.136,27.600 119.687,27.600 120.224 C 27.600 120.761,27.420 121.200,27.200 121.200 C 26.980 121.200,26.800 121.560,26.800 122.000 C 26.800 122.440,26.620 122.800,26.400 122.800 C 26.180 122.800,26.000 123.160,26.000 123.600 C 26.000 124.040,25.820 124.400,25.600 124.400 C 25.380 124.400,25.200 124.749,25.200 125.176 C 25.200 125.603,25.020 126.064,24.800 126.200 C 24.580 126.336,24.400 126.887,24.400 127.424 C 24.400 127.961,24.220 128.400,24.000 128.400 C 23.780 128.400,23.600 128.760,23.600 129.200 C 23.600 129.640,23.420 130.000,23.200 130.000 C 22.980 130.000,22.800 130.540,22.800 131.200 C 22.800 131.860,22.620 132.400,22.400 132.400 C 22.180 132.400,22.000 132.839,22.000 133.376 C 22.000 133.913,21.820 134.464,21.600 134.600 C 21.380 134.736,21.200 135.377,21.200 136.024 C 21.200 136.671,21.020 137.200,20.800 137.200 C 20.580 137.200,20.400 137.740,20.400 138.400 C 20.400 139.060,20.220 139.600,20.000 139.600 C 19.780 139.600,19.600 140.129,19.600 140.776 C 19.600 141.423,19.420 142.064,19.200 142.200 C 18.980 142.336,18.800 142.876,18.800 143.400 C 18.800 143.924,18.620 144.464,18.400 144.600 C 18.180 144.736,18.000 145.647,18.000 146.624 C 18.000 147.601,17.820 148.400,17.600 148.400 C 17.380 148.400,17.200 149.109,17.200 149.976 C 17.200 150.843,17.020 151.664,16.800 151.800 C 16.580 151.936,16.400 152.746,16.400 153.600 C 16.400 154.454,16.220 155.264,16.000 155.400 C 15.780 155.536,15.600 156.886,15.600 158.400 C 15.600 159.914,15.420 161.264,15.200 161.400 C 14.980 161.536,14.800 162.346,14.800 163.200 C 14.800 164.054,14.620 164.864,14.400 165.000 C 14.178 165.137,14.000 166.977,14.000 169.144 C 14.000 171.287,13.833 173.211,13.629 173.420 C 13.425 173.629,13.152 175.330,13.023 177.200 C 12.894 179.070,12.601 183.120,12.371 186.200 C 11.676 195.520,11.995 219.337,12.825 220.180 C 13.031 220.389,13.200 221.863,13.200 223.456 C 13.200 225.049,13.380 226.464,13.600 226.600 C 13.827 226.740,14.000 228.737,14.000 231.224 C 14.000 233.875,14.158 235.600,14.400 235.600 C 14.637 235.600,14.800 237.067,14.800 239.200 C 14.800 241.333,14.963 242.800,15.200 242.800 C 15.420 242.800,15.600 243.419,15.600 244.176 C 15.600 244.933,15.780 245.664,16.000 245.800 C 16.220 245.936,16.400 246.836,16.400 247.800 C 16.400 248.764,16.580 249.664,16.800 249.800 C 17.020 249.936,17.200 250.577,17.200 251.224 C 17.200 251.871,17.380 252.400,17.600 252.400 C 17.820 252.400,18.000 253.120,18.000 254.000 C 18.000 254.880,18.180 255.600,18.400 255.600 C 18.620 255.600,18.800 256.142,18.800 256.805 C 18.800 257.468,18.980 258.368,19.200 258.805 C 19.420 259.242,19.780 259.958,20.000 260.395 C 20.220 260.832,20.400 261.552,20.400 261.995 C 20.400 262.438,20.580 262.800,20.800 262.800 C 21.020 262.800,21.200 263.340,21.200 264.000 C 21.200 264.660,21.380 265.200,21.600 265.200 C 21.820 265.200,22.000 265.639,22.000 266.176 C 22.000 266.713,22.180 267.264,22.400 267.400 C 22.620 267.536,22.800 267.997,22.800 268.424 C 22.800 268.851,22.980 269.200,23.200 269.200 C 23.420 269.200,23.600 269.639,23.600 270.176 C 23.600 270.713,23.780 271.264,24.000 271.400 C 24.220 271.536,24.400 271.997,24.400 272.424 C 24.400 272.851,24.580 273.200,24.800 273.200 C 25.020 273.200,25.200 273.560,25.200 274.000 C 25.200 274.440,25.380 274.800,25.600 274.800 C 25.820 274.800,26.000 275.239,26.000 275.776 C 26.000 276.313,26.180 276.864,26.400 277.000 C 26.620 277.136,26.800 277.597,26.800 278.024 C 26.800 278.451,26.980 278.800,27.200 278.800 C 27.420 278.800,27.600 279.053,27.600 279.362 C 27.600 280.028,29.268 283.341,29.700 283.533 C 29.865 283.607,30.000 284.012,30.000 284.433 C 30.000 284.855,30.180 285.200,30.400 285.200 C 30.620 285.200,30.800 285.560,30.800 286.000 C 30.800 286.440,30.980 286.800,31.200 286.800 C 31.420 286.800,31.600 287.160,31.600 287.600 C 31.600 288.040,31.780 288.400,32.000 288.400 C 32.220 288.400,32.400 288.760,32.400 289.200 C 32.400 289.640,32.580 290.000,32.800 290.000 C 33.020 290.000,33.200 290.360,33.200 290.800 C 33.200 291.240,33.380 291.600,33.600 291.600 C 33.820 291.600,34.000 291.878,34.000 292.217 C 34.000 292.556,34.360 293.220,34.800 293.692 C 35.240 294.164,35.600 294.843,35.600 295.200 C 35.600 295.557,35.915 296.207,36.300 296.645 C 36.685 297.083,37.225 297.837,37.500 298.320 C 37.775 298.804,38.225 299.598,38.500 300.085 C 38.775 300.571,39.221 301.209,39.490 301.503 C 39.760 301.797,40.255 302.614,40.590 303.319 C 40.925 304.023,41.740 305.230,42.399 306.000 C 43.059 306.770,43.599 307.625,43.599 307.900 C 43.600 308.175,43.780 308.400,44.000 308.400 C 44.220 308.400,44.400 308.643,44.400 308.941 C 44.400 309.238,44.940 310.046,45.600 310.737 C 46.260 311.428,46.800 312.225,46.800 312.508 C 46.800 312.791,47.160 313.283,47.600 313.600 C 48.040 313.917,48.400 314.385,48.400 314.640 C 48.400 314.895,49.120 315.845,50.000 316.752 C 50.880 317.659,51.600 318.537,51.600 318.704 C 51.600 318.871,52.500 319.976,53.600 321.160 C 54.700 322.344,55.600 323.461,55.600 323.643 C 55.600 323.824,55.960 324.165,56.400 324.400 C 56.840 324.635,57.200 325.003,57.200 325.216 C 57.200 325.730,73.003 341.521,74.790 342.794 C 75.555 343.338,77.236 344.822,78.525 346.092 C 79.815 347.361,81.034 348.400,81.234 348.400 C 81.435 348.400,82.341 349.120,83.248 350.000 C 84.155 350.880,85.056 351.600,85.252 351.600 C 85.447 351.600,86.172 352.140,86.863 352.800 C 87.554 353.460,88.274 354.000,88.463 354.000 C 88.652 354.000,89.372 354.540,90.063 355.200 C 90.754 355.860,91.562 356.400,91.859 356.400 C 92.157 356.400,92.400 356.550,92.400 356.732 C 92.400 356.915,92.895 357.320,93.500 357.632 C 94.105 357.945,94.949 358.515,95.375 358.900 C 95.802 359.285,96.347 359.600,96.587 359.600 C 96.827 359.600,97.283 359.960,97.600 360.400 C 97.917 360.840,98.457 361.200,98.800 361.200 C 99.143 361.200,99.683 361.560,100.000 362.000 C 100.317 362.440,100.897 362.800,101.288 362.800 C 101.680 362.800,102.000 362.950,102.000 363.132 C 102.000 363.315,102.495 363.720,103.100 364.032 C 103.705 364.344,104.290 364.689,104.400 364.799 C 104.510 364.910,105.365 365.405,106.300 365.900 C 107.235 366.395,108.765 367.205,109.700 367.700 C 110.635 368.195,111.460 368.735,111.533 368.900 C 111.607 369.065,112.012 369.200,112.433 369.200 C 112.855 369.200,113.200 369.359,113.200 369.553 C 113.200 369.748,113.515 370.007,113.900 370.129 C 114.285 370.251,115.050 370.609,115.600 370.925 C 117.614 372.082,120.090 373.200,120.638 373.200 C 120.947 373.200,121.200 373.380,121.200 373.600 C 121.200 373.820,121.560 374.000,122.000 374.000 C 122.440 374.000,122.800 374.180,122.800 374.400 C 122.800 374.620,123.149 374.800,123.576 374.800 C 124.003 374.800,124.464 374.980,124.600 375.200 C 124.736 375.420,125.191 375.600,125.611 375.600 C 126.032 375.600,127.017 375.960,127.800 376.400 C 128.583 376.840,129.579 377.200,130.012 377.200 C 130.445 377.200,130.800 377.380,130.800 377.600 C 130.800 377.820,131.149 378.000,131.576 378.000 C 132.003 378.000,132.464 378.180,132.600 378.400 C 132.736 378.620,133.276 378.800,133.800 378.800 C 134.324 378.800,134.864 378.980,135.000 379.200 C 135.136 379.420,135.676 379.600,136.200 379.600 C 136.724 379.600,137.264 379.780,137.400 380.000 C 137.536 380.220,138.076 380.400,138.600 380.400 C 139.124 380.400,139.664 380.580,139.800 380.800 C 139.936 381.020,140.566 381.200,141.200 381.200 C 141.834 381.200,142.464 381.380,142.600 381.600 C 142.736 381.820,143.377 382.000,144.024 382.000 C 144.671 382.000,145.200 382.180,145.200 382.400 C 145.200 382.620,145.729 382.800,146.376 382.800 C 147.023 382.800,147.664 382.980,147.800 383.200 C 147.936 383.420,148.667 383.600,149.424 383.600 C 150.181 383.600,150.800 383.780,150.800 384.000 C 150.800 384.220,151.329 384.400,151.976 384.400 C 152.623 384.400,153.264 384.580,153.400 384.800 C 153.536 385.020,154.267 385.200,155.024 385.200 C 155.781 385.200,156.400 385.380,156.400 385.600 C 156.400 385.820,157.109 386.000,157.976 386.000 C 158.843 386.000,159.664 386.180,159.800 386.400 C 159.936 386.620,161.016 386.800,162.200 386.800 C 163.384 386.800,164.464 386.980,164.600 387.200 C 164.736 387.420,166.086 387.600,167.600 387.600 C 169.114 387.600,170.464 387.780,170.600 388.000 C 170.922 388.522,174.400 388.522,174.400 388.000 C 174.400 387.780,174.591 387.600,174.824 387.600 C 175.057 387.600,175.136 387.780,175.000 388.000 C 174.856 388.233,175.255 388.400,175.953 388.400 C 176.613 388.400,177.264 388.580,177.400 388.800 C 177.536 389.021,179.330 389.200,181.400 389.200 C 183.470 389.200,185.264 389.379,185.400 389.600 C 185.737 390.146,191.331 390.109,191.883 389.557 C 192.196 389.244,195.115 389.188,201.863 389.367 C 212.856 389.657,212.590 389.657,217.600 389.366 C 219.690 389.245,221.571 388.978,221.780 388.773 C 221.989 388.568,224.003 388.400,226.256 388.400 C 228.556 388.400,230.461 388.225,230.600 388.000 C 230.736 387.780,232.086 387.600,233.600 387.600 C 235.114 387.600,236.464 387.420,236.600 387.200 C 236.736 386.980,237.906 386.800,239.200 386.800 C 240.494 386.800,241.664 386.620,241.800 386.400 C 241.936 386.180,242.746 386.000,243.600 386.000 C 244.454 386.000,245.264 385.820,245.400 385.600 C 245.536 385.380,246.267 385.200,247.024 385.200 C 247.781 385.200,248.400 385.020,248.400 384.800 C 248.400 384.580,249.120 384.400,250.000 384.400 C 250.880 384.400,251.600 384.220,251.600 384.000 C 251.600 383.780,252.309 383.600,253.176 383.600 C 254.043 383.600,254.864 383.420,255.000 383.200 C 255.136 382.980,255.867 382.800,256.624 382.800 C 257.381 382.800,258.000 382.620,258.000 382.400 C 258.000 382.180,258.619 382.000,259.376 382.000 C 260.133 382.000,260.864 381.820,261.000 381.600 C 261.136 381.380,261.676 381.200,262.200 381.200 C 262.724 381.200,263.264 381.020,263.400 380.800 C 263.536 380.580,263.999 380.400,264.429 380.400 C 264.859 380.400,265.523 380.241,265.905 380.047 C 266.287 379.852,267.140 379.471,267.800 379.200 C 268.460 378.929,269.313 378.548,269.695 378.353 C 270.077 378.159,270.842 378.000,271.395 378.000 C 271.948 378.000,272.400 377.820,272.400 377.600 C 272.400 377.380,272.672 377.200,273.005 377.200 C 273.338 377.200,273.923 377.041,274.305 376.847 C 275.005 376.491,276.434 375.892,278.100 375.257 C 278.595 375.068,279.782 374.528,280.738 374.057 C 281.694 373.586,282.729 373.200,283.038 373.200 C 283.347 373.200,283.600 373.020,283.600 372.800 C 283.600 372.580,283.960 372.400,284.400 372.400 C 284.840 372.400,285.200 372.220,285.200 372.000 C 285.200 371.780,285.560 371.600,286.000 371.600 C 286.440 371.600,286.800 371.420,286.800 371.200 C 286.800 370.980,287.034 370.800,287.320 370.800 C 288.056 370.800,289.993 369.859,289.997 369.500 C 289.999 369.335,290.360 369.200,290.800 369.200 C 291.240 369.200,291.600 369.062,291.600 368.894 C 291.600 368.726,292.275 368.282,293.100 367.906 C 294.689 367.184,296.866 365.948,297.200 365.579 C 297.310 365.458,298.067 365.048,298.881 364.669 C 299.696 364.290,300.603 363.760,300.897 363.490 C 301.191 363.221,301.829 362.775,302.315 362.500 C 302.802 362.225,303.595 361.775,304.078 361.500 C 304.561 361.225,305.370 360.604,305.877 360.119 C 306.383 359.635,307.473 358.924,308.299 358.540 C 309.124 358.155,310.070 357.560,310.400 357.218 C 310.730 356.875,311.495 356.340,312.100 356.030 C 312.705 355.719,313.200 355.315,313.200 355.132 C 313.200 354.950,313.448 354.800,313.752 354.800 C 314.055 354.800,315.045 354.080,315.952 353.200 C 316.859 352.320,317.747 351.600,317.925 351.600 C 318.103 351.600,318.598 351.285,319.025 350.900 C 319.452 350.515,320.464 349.705,321.274 349.100 C 322.084 348.495,323.644 347.145,324.740 346.100 C 325.836 345.055,327.488 343.570,328.412 342.800 C 331.045 340.605,343.715 327.923,345.023 326.174 C 345.670 325.308,346.830 323.970,347.600 323.200 C 348.370 322.430,349.471 321.170,350.047 320.400 C 350.623 319.630,351.744 318.280,352.538 317.400 C 353.332 316.520,353.986 315.663,353.991 315.496 C 353.996 315.329,354.540 314.628,355.200 313.937 C 355.860 313.246,356.400 312.438,356.400 312.141 C 356.400 311.843,356.550 311.600,356.732 311.600 C 356.915 311.600,357.320 311.105,357.632 310.500 C 357.945 309.895,358.515 309.051,358.900 308.625 C 359.285 308.198,359.600 307.653,359.600 307.413 C 359.600 307.173,359.960 306.717,360.400 306.400 C 360.840 306.083,361.200 305.627,361.200 305.387 C 361.200 305.147,361.515 304.593,361.900 304.155 C 362.285 303.717,362.825 302.963,363.100 302.480 C 363.375 301.996,363.825 301.202,364.100 300.715 C 364.375 300.229,364.821 299.591,365.090 299.297 C 365.360 299.003,365.888 298.096,366.263 297.281 C 366.639 296.467,367.454 295.048,368.073 294.128 C 368.693 293.208,369.204 292.218,369.209 291.928 C 369.214 291.638,369.570 290.950,370.000 290.400 C 370.430 289.850,370.786 289.190,370.791 288.933 C 370.796 288.677,370.942 288.407,371.115 288.333 C 371.288 288.260,371.919 287.210,372.516 286.000 C 373.114 284.790,373.853 283.350,374.158 282.800 C 374.755 281.722,376.007 278.992,376.863 276.900 C 377.156 276.185,377.531 275.600,377.698 275.600 C 377.864 275.600,378.000 275.328,378.000 274.995 C 378.000 274.662,378.180 274.032,378.400 273.595 C 378.620 273.158,378.980 272.442,379.200 272.005 C 379.420 271.568,379.600 270.859,379.600 270.429 C 379.600 269.999,379.780 269.536,380.000 269.400 C 380.220 269.264,380.400 268.724,380.400 268.200 C 380.400 267.676,380.580 267.136,380.800 267.000 C 381.020 266.864,381.200 266.403,381.200 265.976 C 381.200 265.549,381.380 265.200,381.600 265.200 C 381.820 265.200,382.000 264.851,382.000 264.424 C 382.000 263.997,382.180 263.536,382.400 263.400 C 382.620 263.264,382.800 262.724,382.800 262.200 C 382.800 261.676,382.980 261.136,383.200 261.000 C 383.420 260.864,383.600 260.133,383.600 259.376 C 383.600 258.619,383.780 258.000,384.000 258.000 C 384.220 258.000,384.400 257.381,384.400 256.624 C 384.400 255.867,384.580 255.136,384.800 255.000 C 385.020 254.864,385.200 254.324,385.200 253.800 C 385.200 253.276,385.380 252.736,385.600 252.600 C 385.820 252.464,386.000 251.744,386.000 251.000 C 386.000 250.256,386.180 249.536,386.400 249.400 C 386.620 249.264,386.800 248.454,386.800 247.600 C 386.800 246.746,386.980 245.936,387.200 245.800 C 387.420 245.664,387.600 244.944,387.600 244.200 C 387.600 243.456,387.780 242.736,388.000 242.600 C 388.220 242.464,388.400 241.553,388.400 240.576 C 388.400 239.599,388.580 238.800,388.800 238.800 C 389.022 238.800,389.200 237.741,389.200 236.424 C 389.200 235.117,389.380 233.936,389.600 233.800 C 389.820 233.664,390.000 232.213,390.000 230.576 C 390.000 228.859,390.169 227.600,390.400 227.600 C 390.633 227.600,390.800 226.275,390.800 224.424 C 390.800 222.677,390.980 221.136,391.200 221.000 C 391.753 220.658,391.702 219.062,391.120 218.480 C 390.747 218.107,390.747 217.893,391.120 217.520 C 391.424 217.216,391.600 215.685,391.600 213.344 C 391.600 211.311,391.780 209.536,392.000 209.400 C 392.497 209.093,392.533 202.301,392.041 201.780 C 391.708 201.428,391.581 199.194,390.977 183.200 C 390.857 180.010,390.593 177.040,390.392 176.600 C 390.190 176.160,389.935 174.360,389.825 172.600 C 389.469 166.926,389.141 164.209,388.766 163.820 C 388.565 163.611,388.400 162.587,388.400 161.544 C 388.400 160.501,388.220 159.536,388.000 159.400 C 387.780 159.264,387.600 158.173,387.600 156.976 C 387.600 155.779,387.420 154.800,387.200 154.800 C 386.980 154.800,386.800 154.001,386.800 153.024 C 386.800 152.047,386.620 151.136,386.400 151.000 C 386.180 150.864,386.000 150.234,386.000 149.600 C 386.000 148.966,385.820 148.336,385.600 148.200 C 385.380 148.064,385.200 147.254,385.200 146.400 C 385.200 145.546,385.020 144.736,384.800 144.600 C 384.580 144.464,384.400 143.823,384.400 143.176 C 384.400 142.529,384.220 142.000,384.000 142.000 C 383.780 142.000,383.600 141.561,383.600 141.024 C 383.600 140.487,383.420 139.936,383.200 139.800 C 382.980 139.664,382.800 139.201,382.800 138.771 C 382.800 138.341,382.620 137.632,382.400 137.195 C 382.180 136.758,381.820 136.042,381.600 135.605 C 381.380 135.168,381.200 134.448,381.200 134.005 C 381.200 133.562,381.020 133.200,380.800 133.200 C 380.580 133.200,380.400 132.660,380.400 132.000 C 380.400 131.340,380.220 130.800,380.000 130.800 C 379.780 130.800,379.600 130.451,379.600 130.024 C 379.600 129.597,379.420 129.136,379.200 129.000 C 378.980 128.864,378.800 128.313,378.800 127.776 C 378.800 127.239,378.620 126.800,378.400 126.800 C 378.180 126.800,378.000 126.547,378.000 126.238 C 378.000 125.753,377.448 124.480,375.950 121.505 C 375.757 121.123,375.600 120.538,375.600 120.205 C 375.600 119.872,375.420 119.600,375.200 119.600 C 374.980 119.600,374.800 119.240,374.800 118.800 C 374.800 118.360,374.620 118.000,374.400 118.000 C 374.180 118.000,374.000 117.640,374.000 117.200 C 374.000 116.760,373.820 116.400,373.600 116.400 C 373.380 116.400,373.200 116.040,373.200 115.600 C 373.200 115.160,373.020 114.800,372.800 114.800 C 372.580 114.800,372.400 114.440,372.400 114.000 C 372.400 113.560,372.220 113.200,372.000 113.200 C 371.780 113.200,371.600 112.840,371.600 112.400 C 371.600 111.960,371.420 111.600,371.200 111.600 C 370.980 111.600,370.800 111.240,370.800 110.800 C 370.800 110.360,370.620 110.000,370.400 110.000 C 370.180 110.000,370.000 109.764,370.000 109.475 C 370.000 109.187,369.640 108.564,369.200 108.092 C 368.760 107.620,368.400 106.956,368.400 106.617 C 368.400 106.278,368.241 106.000,368.047 106.000 C 367.852 106.000,367.593 105.685,367.471 105.300 C 367.254 104.613,365.995 102.394,365.599 102.000 C 365.489 101.890,365.144 101.305,364.832 100.700 C 364.520 100.095,364.115 99.600,363.932 99.600 C 363.750 99.600,363.600 99.306,363.600 98.947 C 363.600 98.588,363.284 98.003,362.897 97.647 C 362.511 97.291,361.940 96.505,361.630 95.900 C 361.319 95.295,360.915 94.800,360.732 94.800 C 360.550 94.800,360.400 94.480,360.400 94.088 C 360.400 93.697,360.040 93.117,359.600 92.800 C 359.160 92.483,358.800 92.027,358.800 91.787 C 358.800 91.547,358.485 91.002,358.100 90.575 C 357.715 90.149,357.145 89.305,356.832 88.700 C 356.502 88.061,355.916 87.587,355.432 87.568 C 354.975 87.551,354.826 87.446,355.103 87.334 C 355.686 87.099,354.534 85.269,352.715 83.540 C 352.102 82.956,351.600 82.303,351.600 82.088 C 351.600 81.873,350.880 80.955,350.000 80.048 C 349.120 79.141,348.400 78.238,348.400 78.040 C 348.400 77.843,347.500 76.762,346.400 75.639 C 345.300 74.515,344.400 73.429,344.400 73.224 C 344.400 72.750,329.454 57.751,327.586 56.351 C 326.816 55.774,324.976 54.109,323.496 52.651 C 322.017 51.193,320.623 50.000,320.399 50.000 C 320.176 50.000,319.428 49.460,318.737 48.800 C 318.046 48.140,317.314 47.600,317.109 47.600 C 316.905 47.600,316.046 46.880,315.200 46.000 C 314.354 45.120,313.379 44.400,313.031 44.400 C 312.684 44.400,312.400 44.250,312.400 44.068 C 312.400 43.885,311.905 43.480,311.300 43.168 C 310.695 42.855,309.851 42.285,309.425 41.900 C 308.998 41.515,308.413 41.200,308.125 41.200 C 307.836 41.200,307.600 41.020,307.600 40.800 C 307.600 40.580,307.375 40.400,307.100 40.399 C 306.825 40.399,305.970 39.859,305.200 39.200 C 304.430 38.541,303.657 38.001,303.483 38.001 C 303.309 38.000,302.780 37.640,302.308 37.200 C 301.836 36.760,301.213 36.400,300.925 36.400 C 300.636 36.400,300.400 36.220,300.400 36.000 C 300.400 35.780,300.080 35.600,299.688 35.600 C 299.297 35.600,298.717 35.240,298.400 34.800 C 298.083 34.360,297.503 34.000,297.112 34.000 C 296.720 34.000,296.400 33.820,296.400 33.600 C 296.400 33.380,296.040 33.200,295.600 33.200 C 295.160 33.200,294.800 33.020,294.800 32.800 C 294.800 32.580,294.455 32.400,294.033 32.400 C 293.612 32.400,293.207 32.265,293.133 32.100 C 292.966 31.724,290.836 30.425,289.900 30.129 C 289.515 30.007,289.200 29.748,289.200 29.553 C 289.200 29.359,288.840 29.200,288.400 29.200 C 287.960 29.200,287.600 29.020,287.600 28.800 C 287.600 28.580,287.240 28.400,286.800 28.400 C 286.360 28.400,286.000 28.220,286.000 28.000 C 286.000 27.780,285.640 27.600,285.200 27.600 C 284.760 27.600,284.400 27.420,284.400 27.200 C 284.400 26.980,284.040 26.800,283.600 26.800 C 283.160 26.800,282.800 26.620,282.800 26.400 C 282.800 26.180,282.451 26.000,282.024 26.000 C 281.597 26.000,281.136 25.820,281.000 25.600 C 280.864 25.380,280.396 25.200,279.960 25.200 C 279.523 25.200,278.780 24.840,278.308 24.400 C 277.836 23.960,277.033 23.600,276.525 23.600 C 276.016 23.600,275.600 23.420,275.600 23.200 C 275.600 22.980,275.161 22.800,274.624 22.800 C 274.087 22.800,273.536 22.620,273.400 22.400 C 273.264 22.180,272.724 22.000,272.200 22.000 C 271.676 22.000,271.136 21.820,271.000 21.600 C 270.864 21.380,270.223 21.200,269.576 21.200 C 268.929 21.200,268.400 21.020,268.400 20.800 C 268.400 20.580,268.038 20.400,267.595 20.400 C 266.817 20.400,266.431 20.258,264.505 19.262 C 264.013 19.008,262.989 18.800,262.229 18.800 C 261.469 18.800,260.736 18.620,260.600 18.400 C 260.464 18.180,259.834 18.000,259.200 18.000 C 258.566 18.000,257.936 17.820,257.800 17.600 C 257.664 17.380,257.034 17.200,256.400 17.200 C 255.766 17.200,255.148 17.039,255.026 16.842 C 254.802 16.480,253.279 16.200,249.100 15.751 C 247.835 15.615,246.800 15.345,246.800 15.152 C 246.800 14.958,245.756 14.800,244.480 14.800 C 243.204 14.800,241.989 14.634,241.780 14.431 C 241.571 14.228,240.140 13.962,238.600 13.840 C 237.060 13.718,234.654 13.507,233.253 13.371 C 231.455 13.197,230.786 13.253,230.977 13.562 " stroke="none" fill="#212121" fill-rule="evenodd"></path><path id="path2" d="M283.800 101.761 C 282.311 102.418,281.417 103.404,280.282 105.642 C 278.851 108.465,277.512 108.990,273.718 108.220 C 264.436 106.337,258.374 105.455,257.304 105.831 L 256.200 106.219 256.200 111.810 L 256.200 117.400 258.200 117.655 C 266.872 118.762,274.699 127.685,278.357 140.634 C 280.908 149.668,283.232 151.548,287.569 148.085 C 290.493 145.751,290.399 146.548,290.399 124.060 L 290.400 103.920 289.040 102.560 C 287.534 101.054,285.949 100.812,283.800 101.761 M247.600 106.857 C 234.796 108.973,219.389 121.936,211.537 137.200 C 209.640 140.888,209.040 142.193,207.581 145.800 C 206.506 148.456,204.941 154.894,203.739 161.600 C 202.878 166.405,202.729 183.394,203.507 188.000 C 207.816 213.489,219.794 226.161,240.818 227.473 C 250.548 228.080,251.308 227.597,251.131 220.925 C 250.989 215.553,250.845 215.218,248.680 215.206 C 246.331 215.193,244.171 213.392,242.806 210.306 C 241.880 208.214,241.236 143.844,242.025 132.278 C 242.544 124.681,244.056 121.782,249.000 118.908 L 251.000 117.746 251.112 112.870 C 251.216 108.364,250.889 106.315,250.086 106.447 C 249.929 106.472,248.810 106.657,247.600 106.857 M183.000 117.815 C 182.340 118.143,181.013 119.491,180.051 120.810 C 177.798 123.901,177.443 123.964,171.080 122.394 C 165.103 120.919,156.686 120.505,155.960 121.651 C 155.354 122.607,155.519 131.035,156.154 131.562 C 156.458 131.814,158.123 132.275,159.854 132.585 C 164.574 133.431,167.886 134.649,169.521 136.139 C 171.712 138.137,176.018 146.752,177.974 153.053 C 179.514 158.012,180.069 158.600,183.210 158.600 C 185.756 158.600,187.001 157.823,188.338 155.400 C 189.043 154.122,189.589 126.469,189.003 121.713 C 188.538 117.943,186.025 116.311,183.000 117.815 M146.000 122.767 C 124.611 128.683,111.478 146.661,112.515 168.606 C 112.665 171.784,113.013 174.278,113.523 175.830 C 113.951 177.133,114.408 178.650,114.539 179.200 C 115.514 183.307,121.554 190.395,127.200 194.059 C 132.946 197.787,134.496 198.472,143.800 201.383 C 150.374 203.440,155.367 205.262,157.718 206.461 C 167.554 211.477,166.281 223.681,155.344 229.210 C 150.987 231.413,151.200 231.043,151.200 236.413 C 151.200 242.211,151.208 242.221,155.213 241.172 C 177.836 235.246,192.810 216.965,192.796 195.290 C 192.790 185.390,190.193 179.499,182.291 171.460 C 176.400 165.469,175.997 165.276,155.808 158.814 C 146.857 155.949,144.223 154.269,142.150 150.100 C 139.186 144.137,141.570 137.823,148.259 133.916 L 150.600 132.549 150.712 127.275 L 150.823 122.000 149.712 122.024 C 149.100 122.037,147.430 122.372,146.000 122.767 M283.514 185.422 C 282.124 186.176,280.753 188.561,279.386 192.600 C 275.990 202.637,268.740 210.194,259.400 213.432 C 256.174 214.551,255.950 215.055,256.089 220.868 C 256.223 226.514,256.064 226.332,259.894 225.211 C 272.784 221.439,284.788 209.404,289.588 195.437 C 292.070 188.217,288.675 182.620,283.514 185.422 M116.414 201.519 C 115.651 201.894,114.481 203.010,113.814 204.000 L 112.600 205.800 112.481 223.285 C 112.354 241.790,112.455 243.080,114.180 244.941 C 116.135 247.050,118.265 246.362,121.857 242.465 C 124.822 239.248,125.521 239.167,132.600 241.227 C 137.420 242.629,145.603 243.357,146.498 242.462 C 147.033 241.927,147.321 234.667,146.873 233.017 C 146.570 231.901,146.357 231.796,143.156 231.165 C 134.866 229.534,127.903 221.357,123.599 208.200 C 121.264 201.060,119.910 199.802,116.414 201.519 M138.956 269.992 C 138.320 270.249,137.793 271.350,136.813 274.466 C 134.829 280.780,135.050 280.443,134.024 278.718 C 133.242 277.404,131.833 276.433,131.374 276.893 C 131.283 276.984,131.505 277.812,131.867 278.733 C 132.689 280.827,132.056 283.027,130.949 281.920 C 130.046 281.017,129.462 278.048,130.048 277.342 C 130.423 276.890,130.343 276.607,129.661 275.971 C 128.652 275.031,128.618 274.802,129.340 273.814 C 129.717 273.299,130.165 273.150,130.819 273.321 C 132.708 273.815,133.539 271.763,131.911 270.623 C 130.929 269.935,128.602 269.757,129.000 270.400 C 129.147 270.637,128.682 270.800,127.856 270.800 C 125.261 270.800,123.911 272.737,126.037 273.412 C 127.177 273.774,128.638 276.941,127.755 277.135 C 127.417 277.209,126.825 276.984,126.439 276.635 C 125.441 275.732,124.721 275.842,124.872 276.876 C 124.959 277.471,125.397 277.855,126.233 278.070 C 129.577 278.932,129.504 281.104,126.124 281.279 C 123.426 281.420,122.933 282.169,124.504 283.741 C 125.432 284.668,125.652 284.698,131.119 284.650 L 136.775 284.600 137.887 283.318 C 138.710 282.371,139.365 282.021,140.400 281.978 C 142.581 281.886,142.672 281.926,143.202 283.205 C 143.811 284.675,144.508 284.870,148.601 284.719 L 151.800 284.600 151.919 282.100 C 152.058 279.175,152.748 278.811,154.400 280.791 C 156.859 283.737,159.000 281.819,159.000 276.669 C 159.000 272.054,159.771 272.069,159.915 276.687 C 160.073 281.777,159.707 283.017,158.066 282.941 C 157.100 282.896,156.800 283.050,156.800 283.589 C 156.800 284.314,160.344 285.129,161.198 284.601 C 161.731 284.272,161.425 270.865,160.873 270.313 C 159.844 269.284,157.811 270.487,157.670 272.208 C 157.478 274.546,156.975 274.953,155.563 273.910 C 154.924 273.437,154.400 272.736,154.400 272.354 C 154.400 271.155,152.387 269.897,150.864 270.145 C 148.422 270.541,148.345 270.757,148.504 276.707 C 148.711 284.447,147.636 284.568,145.164 277.084 C 144.453 274.930,143.720 273.074,143.535 272.960 C 143.351 272.846,143.200 272.324,143.200 271.799 C 143.200 270.095,141.009 269.162,138.956 269.992 M269.560 270.248 C 269.330 270.525,269.344 271.794,269.595 273.567 C 269.819 275.146,269.888 277.417,269.747 278.613 C 269.578 280.051,269.652 280.980,269.965 281.358 C 270.792 282.354,269.638 282.566,268.779 281.576 C 268.102 280.795,268.000 280.061,268.000 275.962 C 268.000 271.404,267.729 270.263,266.892 271.304 C 265.903 272.536,266.649 283.722,267.772 284.494 C 268.433 284.948,275.518 284.857,275.806 284.390 C 276.653 283.019,275.554 281.600,273.645 281.600 C 269.702 281.600,268.984 279.085,272.868 278.881 C 276.196 278.706,276.697 276.434,273.593 275.598 C 270.812 274.849,271.661 272.533,274.554 272.974 C 275.239 273.078,277.105 273.272,278.700 273.406 L 281.600 273.648 281.600 271.824 L 281.600 270.000 279.900 269.969 C 271.024 269.806,269.902 269.836,269.560 270.248 M165.449 270.320 C 165.082 270.914,165.539 280.739,165.971 281.547 C 166.583 282.689,166.526 282.800,165.333 282.800 C 164.747 282.800,164.380 282.686,164.519 282.547 C 164.658 282.409,164.528 281.946,164.229 281.520 C 163.812 280.925,163.737 279.586,163.903 275.732 C 164.109 270.961,164.083 270.725,163.360 270.866 C 162.118 271.106,162.383 283.637,163.647 284.437 C 165.251 285.453,171.906 284.576,171.458 283.407 C 171.335 283.087,171.407 282.719,171.617 282.589 C 172.099 282.292,172.125 279.200,171.646 279.200 C 171.451 279.200,170.997 279.650,170.637 280.200 C 169.063 282.602,166.400 281.113,166.400 277.831 C 166.400 273.935,169.223 271.336,170.587 273.975 C 171.320 275.391,171.522 275.456,172.229 274.500 C 173.036 273.408,173.491 274.252,174.061 277.900 C 174.564 281.118,174.604 281.200,175.688 281.200 C 176.684 281.200,176.800 281.340,176.800 282.551 C 176.800 284.414,177.734 285.155,179.106 284.381 C 180.572 283.554,180.624 282.937,179.288 282.245 L 178.125 281.644 178.046 277.422 C 177.959 272.736,178.851 271.198,179.427 275.040 C 179.805 277.562,180.386 276.516,180.394 273.300 C 180.399 271.157,180.297 270.800,179.680 270.800 C 179.284 270.800,178.748 270.588,178.489 270.329 C 177.852 269.692,176.569 270.856,176.272 272.340 C 175.933 274.035,173.200 274.077,173.200 272.387 C 173.200 271.264,172.082 270.455,171.245 270.972 C 171.046 271.095,170.370 270.928,169.742 270.600 C 168.526 269.966,165.779 269.787,165.449 270.320 M191.900 270.276 C 191.515 270.376,191.121 270.850,191.025 271.329 C 190.928 271.808,190.731 272.740,190.587 273.400 C 190.043 275.894,190.168 280.009,190.800 280.408 C 191.786 281.032,192.002 280.858,191.590 279.774 C 190.915 277.999,191.148 275.888,192.143 274.759 C 193.772 272.911,194.296 272.805,196.988 273.781 C 200.786 275.159,200.934 275.294,201.597 278.000 C 202.324 280.963,202.957 281.272,203.120 278.741 C 203.240 276.886,203.834 276.273,205.100 276.698 C 206.520 277.176,204.715 282.532,203.215 282.293 C 202.451 282.172,202.162 283.603,202.861 284.046 C 205.022 285.416,206.400 284.013,206.400 280.444 C 206.400 278.535,206.607 277.730,207.400 276.562 C 207.950 275.751,208.400 274.871,208.400 274.606 C 208.400 273.617,209.928 272.643,210.603 273.202 C 211.197 273.695,211.319 275.442,211.230 282.164 C 211.190 285.130,215.155 285.901,219.660 283.804 C 221.786 282.814,223.855 282.464,223.420 283.168 C 223.119 283.654,224.279 284.789,225.129 284.840 C 226.554 284.925,232.608 284.721,232.748 284.583 C 233.729 283.620,232.228 281.691,230.323 281.465 C 229.189 281.331,228.086 281.046,227.871 280.831 C 227.243 280.203,228.660 278.400,229.781 278.400 C 230.692 278.400,232.000 277.486,232.000 276.848 C 232.000 275.732,230.880 275.094,229.663 275.518 C 228.502 275.923,228.386 275.883,228.165 275.001 C 227.805 273.570,228.307 273.080,229.872 273.334 C 232.113 273.698,233.825 271.377,232.026 270.414 C 231.195 269.969,226.964 269.931,225.000 270.351 C 223.832 270.601,223.799 270.673,223.753 273.067 C 223.689 276.379,223.359 277.496,222.349 277.816 C 221.137 278.201,220.734 277.347,221.006 274.977 C 221.261 272.759,220.681 270.633,219.898 270.913 C 219.624 271.010,218.931 270.854,218.357 270.564 C 216.524 269.640,208.000 269.824,208.000 270.788 C 208.000 271.765,207.355 272.181,207.054 271.398 C 206.707 270.492,206.026 270.681,205.600 271.800 C 205.097 273.122,203.358 273.184,202.772 271.900 C 202.019 270.247,195.651 269.295,191.900 270.276 M236.100 270.274 L 234.400 270.446 234.337 274.123 C 234.302 276.145,234.304 278.070,234.340 278.400 C 234.376 278.730,234.463 280.092,234.533 281.426 C 234.693 284.449,234.910 284.800,236.624 284.800 C 238.062 284.800,238.129 284.690,238.013 282.536 C 237.963 281.602,238.147 281.207,238.716 281.027 C 239.591 280.749,240.800 281.107,240.800 281.643 C 240.800 281.839,241.070 282.000,241.400 282.000 C 241.730 282.000,242.000 281.655,242.000 281.233 C 242.000 280.188,242.409 279.200,242.843 279.200 C 243.327 279.200,243.295 281.298,242.791 282.623 C 242.078 284.499,242.800 284.851,246.922 284.634 C 250.531 284.444,251.180 284.162,251.194 282.780 C 251.210 281.186,247.673 280.474,246.822 281.900 C 245.831 283.562,243.974 280.365,244.272 277.511 L 244.533 275.021 243.466 275.720 C 242.880 276.104,242.386 276.279,242.369 276.109 C 242.330 275.713,242.156 274.819,241.811 273.250 C 241.431 271.518,243.204 271.390,243.880 273.100 L 244.315 274.200 244.357 273.176 C 244.451 270.932,241.131 269.765,236.100 270.274 M253.743 270.525 C 252.698 271.047,252.411 273.299,252.564 279.800 L 252.668 284.200 254.135 284.324 C 255.395 284.431,255.656 284.304,255.991 283.424 C 256.414 282.311,255.921 280.400,255.210 280.400 C 254.984 280.400,254.800 280.209,254.800 279.976 C 254.800 279.743,254.968 279.656,255.172 279.783 C 255.377 279.909,255.658 279.830,255.796 279.607 C 256.266 278.847,257.133 279.197,258.753 280.800 C 260.339 282.371,261.200 282.793,261.200 282.000 C 261.200 281.780,261.460 281.600,261.777 281.600 C 262.095 281.600,262.644 281.195,262.998 280.700 C 263.629 279.819,263.640 279.833,263.521 281.400 C 263.409 282.880,263.310 283.001,262.203 283.015 C 261.438 283.024,260.961 283.257,260.884 283.661 C 260.756 284.324,264.388 285.102,265.218 284.589 C 265.748 284.261,265.655 271.155,265.118 270.504 C 264.241 269.441,261.600 270.727,261.600 272.216 C 261.600 273.394,261.213 274.400,260.760 274.400 C 260.079 274.400,258.400 272.649,258.400 271.938 C 258.400 270.509,255.525 269.637,253.743 270.525 M283.127 273.100 C 283.042 276.699,283.211 280.923,283.449 281.173 C 283.956 281.708,284.392 280.197,284.585 277.236 C 284.830 273.459,285.121 272.898,286.930 272.723 C 288.941 272.528,288.938 270.987,286.924 270.428 C 283.425 269.456,283.209 269.608,283.127 273.100 M213.278 274.482 C 212.988 274.772,213.058 275.315,213.508 276.258 C 214.200 277.708,213.491 279.274,212.438 278.624 C 211.841 278.254,211.881 273.498,212.493 272.155 L 212.987 271.072 213.341 272.568 C 213.571 273.542,213.549 274.211,213.278 274.482 M226.200 275.415 C 226.200 278.706,226.070 279.704,225.606 279.994 C 225.122 280.295,225.095 280.587,225.461 281.556 C 225.796 282.444,225.795 282.791,225.456 282.915 C 224.716 283.186,223.971 282.770,224.293 282.266 C 224.457 282.010,224.630 279.824,224.677 277.409 C 224.753 273.501,225.233 271.194,225.968 271.203 C 226.095 271.204,226.200 273.100,226.200 275.415 M142.157 272.730 C 142.267 272.909,141.827 272.977,141.179 272.882 C 140.032 272.714,139.737 272.396,140.253 271.881 C 140.523 271.610,141.823 272.190,142.157 272.730 M201.984 272.771 C 202.419 273.583,202.163 274.800,201.557 274.800 C 201.361 274.800,201.200 274.170,201.200 273.400 C 201.200 271.813,201.390 271.660,201.984 272.771 M219.843 273.029 C 220.122 274.140,219.541 275.058,218.835 274.622 C 218.596 274.474,218.400 273.823,218.400 273.176 C 218.400 271.687,219.479 271.577,219.843 273.029 M263.994 274.876 C 263.997 275.908,263.842 276.850,263.649 276.970 C 263.015 277.361,262.465 272.868,263.073 272.261 C 263.565 271.768,263.988 272.967,263.994 274.876 M236.772 275.513 C 236.791 276.659,237.002 277.302,237.410 277.459 C 237.880 277.639,237.915 277.821,237.563 278.245 C 237.311 278.548,237.197 279.146,237.309 279.575 C 237.558 280.525,236.129 282.062,235.841 281.154 C 234.986 278.453,235.564 270.803,236.453 273.062 C 236.613 273.468,236.756 274.571,236.772 275.513 M187.828 274.100 C 187.010 278.033,187.186 281.600,188.197 281.600 C 188.573 281.600,188.694 280.779,188.654 278.500 C 188.624 276.795,188.755 274.905,188.943 274.300 C 189.219 273.417,189.161 273.200,188.651 273.200 C 188.301 273.200,187.931 273.605,187.828 274.100 M216.800 274.213 C 216.800 274.851,215.737 275.470,215.333 275.067 C 215.206 274.939,215.208 274.557,215.338 274.217 C 215.645 273.418,216.800 273.414,216.800 274.213 M240.000 274.600 C 240.000 275.700,239.539 275.890,238.858 275.070 C 238.538 274.684,238.546 274.414,238.890 274.070 C 239.626 273.334,240.000 273.513,240.000 274.600 M150.569 275.409 C 150.825 276.812,150.499 278.108,149.971 277.782 C 149.549 277.521,149.475 275.591,149.849 274.615 C 150.167 273.788,150.299 273.934,150.569 275.409 M258.394 275.100 C 258.389 275.957,258.302 276.068,258.000 275.600 C 257.494 274.817,257.494 274.000,258.000 274.000 C 258.220 274.000,258.397 274.495,258.394 275.100 M254.588 277.174 C 254.200 278.178,253.485 276.592,253.832 275.498 L 254.113 274.613 254.471 275.580 C 254.668 276.112,254.720 276.830,254.588 277.174 M280.774 276.231 C 280.357 276.734,280.346 277.217,280.720 278.616 C 280.982 279.595,281.077 281.189,280.935 282.224 C 280.638 284.385,281.122 284.925,282.825 284.331 C 284.422 283.775,284.535 282.985,283.180 281.845 C 282.094 280.931,282.000 280.643,282.000 278.226 C 282.000 275.559,281.716 275.097,280.774 276.231 M144.659 279.277 C 144.793 280.115,145.059 280.800,145.251 280.800 C 145.443 280.800,145.600 281.160,145.600 281.600 C 145.600 282.516,144.882 282.679,144.559 281.836 C 144.439 281.526,143.950 281.174,143.471 281.053 C 142.699 280.859,142.598 280.560,142.586 278.428 L 142.572 276.022 143.494 276.888 C 144.000 277.364,144.525 278.439,144.659 279.277 M259.927 278.131 C 259.996 278.719,259.861 279.200,259.627 279.200 C 259.392 279.200,259.198 279.065,259.195 278.900 C 259.192 278.735,259.074 278.171,258.934 277.646 C 258.744 276.935,258.821 276.740,259.239 276.877 C 259.548 276.979,259.857 277.543,259.927 278.131 M179.473 278.021 C 179.049 279.604,179.159 280.400,179.800 280.400 C 180.444 280.400,180.560 279.153,180.039 277.821 C 179.757 277.100,179.715 277.115,179.473 278.021 M137.600 277.950 C 137.600 278.143,137.713 278.863,137.850 279.550 C 138.025 280.423,137.947 280.800,137.594 280.800 C 137.316 280.800,136.834 281.115,136.523 281.500 C 135.995 282.155,135.971 282.149,136.158 281.400 C 136.268 280.960,136.477 279.925,136.623 279.100 C 136.851 277.812,137.600 276.931,137.600 277.950 M217.600 280.348 C 217.600 280.491,217.249 280.827,216.820 281.095 C 215.314 282.035,214.300 279.723,215.771 278.702 C 216.161 278.432,217.600 279.727,217.600 280.348 M220.725 280.497 C 220.643 281.352,220.361 281.839,219.899 281.926 C 218.883 282.119,218.580 280.906,219.413 279.985 C 220.441 278.850,220.868 279.017,220.725 280.497 M213.411 280.018 C 213.786 280.624,212.770 281.730,212.284 281.244 C 211.835 280.795,212.184 279.600,212.764 279.600 C 212.978 279.600,213.269 279.788,213.411 280.018 M194.330 281.090 C 193.522 281.175,192.645 281.505,192.381 281.822 C 192.118 282.140,191.558 282.400,191.138 282.400 C 190.035 282.400,189.710 283.599,190.632 284.273 C 191.162 284.661,192.304 284.795,194.383 284.715 L 197.372 284.600 197.737 283.055 C 198.119 281.431,197.697 280.741,196.400 280.873 C 196.070 280.907,195.139 281.004,194.330 281.090 " stroke="none" fill="#f7bd10" fill-rule="evenodd"></path><path id="path3" d="M284.600 99.954 C 282.147 100.582,280.268 102.326,278.662 105.467 C 277.814 107.124,276.489 107.387,272.988 106.590 C 263.451 104.418,255.851 103.708,254.898 104.900 C 253.824 106.244,253.117 116.750,253.992 118.384 C 254.462 119.262,256.414 120.000,258.268 120.000 C 264.699 120.000,272.476 129.275,276.447 141.681 C 278.742 148.851,279.473 150.220,281.447 151.045 C 285.718 152.830,290.495 149.417,291.588 143.800 C 292.364 139.807,291.993 104.624,291.155 102.782 C 290.062 100.380,287.408 99.235,284.600 99.954 M289.040 102.560 L 290.400 103.920 290.399 124.060 C 290.399 146.548,290.493 145.751,287.569 148.085 C 283.232 151.548,280.908 149.668,278.357 140.634 C 274.699 127.685,266.872 118.762,258.200 117.655 L 256.200 117.400 256.200 111.810 L 256.200 106.219 257.304 105.831 C 258.374 105.455,264.436 106.337,273.718 108.220 C 277.512 108.990,278.851 108.465,280.282 105.642 C 282.554 101.163,286.318 99.838,289.040 102.560 M247.800 105.401 C 238.560 106.870,225.643 115.198,218.393 124.360 C 217.627 125.328,216.543 126.678,215.985 127.360 C 209.550 135.221,204.201 148.372,201.954 161.859 C 199.550 176.283,202.028 199.383,206.815 207.163 C 207.467 208.222,208.000 209.260,208.000 209.470 C 208.000 210.138,211.629 215.291,213.955 217.927 C 217.443 221.879,226.952 227.992,229.630 228.004 C 230.164 228.007,231.500 228.298,232.600 228.652 C 235.901 229.715,248.014 229.899,250.600 228.926 L 252.600 228.173 252.600 221.271 C 252.600 213.436,252.675 213.616,249.389 213.606 C 246.943 213.599,245.223 212.252,243.993 209.383 C 243.221 207.582,243.200 206.532,243.206 169.267 C 243.213 122.392,242.819 125.417,249.502 120.937 C 251.743 119.435,252.885 118.401,253.056 117.719 C 253.401 116.345,252.830 106.403,252.355 105.516 C 251.923 104.709,252.119 104.714,247.800 105.401 M250.798 107.197 C 251.053 107.673,251.179 109.958,251.112 112.870 L 251.000 117.746 249.000 118.908 C 244.056 121.782,242.544 124.681,242.025 132.278 C 241.236 143.844,241.880 208.214,242.806 210.306 C 244.171 213.392,246.331 215.193,248.680 215.206 C 250.845 215.218,250.989 215.553,251.131 220.925 C 251.308 227.597,250.548 228.080,240.818 227.473 C 219.794 226.161,207.816 213.489,203.507 188.000 C 202.729 183.394,202.878 166.405,203.739 161.600 C 204.941 154.894,206.506 148.456,207.581 145.800 C 209.040 142.193,209.640 140.888,211.537 137.200 C 218.397 123.865,230.966 112.221,243.000 108.052 C 245.012 107.355,246.258 107.073,250.086 106.447 C 250.243 106.421,250.564 106.759,250.798 107.197 M183.800 115.982 C 181.969 116.410,181.075 117.114,179.366 119.472 C 177.376 122.220,176.828 122.331,171.879 121.001 C 164.424 118.996,154.713 119.056,154.237 121.110 C 152.437 128.877,153.742 134.400,157.377 134.400 C 159.461 134.400,166.155 136.458,167.518 137.517 C 169.591 139.128,174.652 148.898,176.224 154.320 C 177.329 158.134,177.939 159.280,179.363 160.213 C 183.001 162.596,188.644 159.867,189.973 155.083 C 190.775 152.194,190.389 119.745,189.534 118.186 C 188.522 116.340,186.158 115.431,183.800 115.982 M187.612 118.413 C 189.190 120.102,189.281 121.342,189.130 139.000 C 188.988 155.561,189.017 155.347,186.606 157.600 C 185.718 158.429,185.139 158.600,183.210 158.600 C 180.069 158.600,179.514 158.012,177.974 153.053 C 176.018 146.752,171.712 138.137,169.521 136.139 C 167.886 134.649,164.574 133.431,159.854 132.585 C 158.123 132.275,156.458 131.814,156.154 131.562 C 155.519 131.035,155.354 122.607,155.960 121.651 C 156.686 120.505,165.103 120.919,171.080 122.394 C 177.443 123.964,177.798 123.901,180.051 120.810 C 182.805 117.033,185.519 116.172,187.612 118.413 M149.000 120.474 C 144.713 121.523,136.672 124.525,134.423 125.915 C 120.740 134.376,113.243 145.369,110.998 160.264 C 107.778 181.624,117.212 194.880,141.400 202.983 C 158.500 208.712,160.811 209.996,162.011 214.433 C 163.606 220.329,160.927 224.855,153.762 228.373 C 150.612 229.919,150.404 230.102,149.968 231.704 C 148.905 235.606,148.940 235.562,148.632 233.381 C 148.251 230.679,148.193 230.624,145.172 230.080 C 140.741 229.282,138.045 228.204,136.316 226.540 C 132.302 222.674,126.959 214.171,125.419 209.200 C 123.799 203.968,122.387 200.965,121.225 200.278 C 117.141 197.866,111.885 201.706,110.801 207.893 C 109.954 212.720,110.411 243.418,111.357 245.256 C 113.592 249.599,117.458 249.345,122.488 244.524 L 125.177 241.947 127.088 242.225 C 128.140 242.378,130.440 242.938,132.200 243.471 C 138.940 245.509,146.473 245.527,148.491 243.509 C 149.228 242.772,149.344 242.756,149.674 243.346 C 150.613 245.024,160.844 242.348,167.600 238.658 C 174.591 234.839,181.923 228.344,185.400 222.890 C 186.280 221.510,187.425 219.717,187.945 218.906 C 196.151 206.105,196.240 185.856,188.136 175.698 C 180.570 166.216,177.554 164.222,164.400 160.009 C 147.154 154.485,145.208 153.522,143.492 149.655 C 141.097 144.260,142.678 139.935,148.416 136.190 C 152.903 133.260,152.939 133.181,152.670 126.666 C 152.386 119.792,152.310 119.664,149.000 120.474 M150.712 127.275 L 150.600 132.549 148.259 133.916 C 141.570 137.823,139.186 144.137,142.150 150.100 C 144.223 154.269,146.857 155.949,155.808 158.814 C 175.997 165.276,176.400 165.469,182.291 171.460 C 190.193 179.499,192.790 185.390,192.796 195.290 C 192.810 216.965,177.836 235.246,155.213 241.172 C 151.208 242.221,151.200 242.211,151.200 236.413 C 151.200 231.043,150.987 231.413,155.344 229.210 C 166.281 223.681,167.554 211.477,157.718 206.461 C 155.367 205.262,150.374 203.440,143.800 201.383 C 134.496 198.472,132.946 197.787,127.200 194.059 C 121.554 190.395,115.514 183.307,114.539 179.200 C 114.408 178.650,113.951 177.133,113.523 175.830 C 109.346 163.114,115.642 142.657,126.685 133.062 C 132.964 127.606,144.367 122.140,149.712 122.024 L 150.823 122.000 150.712 127.275 M282.750 184.346 C 280.757 185.609,279.498 187.789,277.171 194.000 C 273.834 202.906,267.699 208.894,258.400 212.322 C 254.449 213.778,254.347 214.008,254.265 221.642 C 254.192 228.368,254.281 228.591,256.904 228.209 C 271.286 226.111,288.301 209.076,291.415 193.656 C 293.059 185.516,288.548 180.669,282.750 184.346 M289.171 186.291 C 294.901 193.243,280.202 216.441,265.936 222.961 C 262.437 224.559,256.906 226.239,256.494 225.828 C 256.332 225.667,256.150 223.435,256.089 220.868 C 255.950 215.055,256.174 214.551,259.400 213.432 C 268.740 210.194,275.990 202.637,279.386 192.600 C 281.957 185.000,285.973 182.411,289.171 186.291 M120.013 201.407 C 121.437 202.143,121.913 203.045,123.599 208.200 C 127.903 221.357,134.866 229.534,143.156 231.165 C 146.357 231.796,146.570 231.901,146.873 233.017 C 147.321 234.667,147.033 241.927,146.498 242.462 C 145.603 243.357,137.420 242.629,132.600 241.227 C 125.521 239.167,124.822 239.248,121.857 242.465 C 118.265 246.362,116.135 247.050,114.180 244.941 C 112.455 243.080,112.354 241.790,112.481 223.285 L 112.600 205.800 113.814 204.000 C 115.655 201.269,117.917 200.323,120.013 201.407 " stroke="none" fill="#c35527" fill-rule="evenodd"></path><path id="path4" d="M185.000 12.000 C 184.864 12.220,183.244 12.400,181.400 12.400 C 179.556 12.400,177.936 12.580,177.800 12.800 C 177.664 13.020,176.303 13.200,174.776 13.200 C 173.192 13.200,172.000 13.372,172.000 13.600 C 172.000 13.820,171.010 14.000,169.800 14.000 C 168.590 14.000,167.600 14.180,167.600 14.400 C 167.600 14.620,166.610 14.800,165.400 14.800 C 164.190 14.800,163.200 14.980,163.200 15.200 C 163.200 15.420,162.491 15.600,161.624 15.600 C 160.757 15.600,159.949 15.760,159.828 15.955 C 159.707 16.150,158.932 16.430,158.104 16.576 C 156.238 16.908,150.562 18.591,142.200 21.292 C 89.750 38.237,45.645 80.351,26.019 132.229 C 21.978 142.911,18.828 153.865,17.006 163.570 C 16.673 165.346,16.139 168.195,15.821 169.900 C 13.105 184.432,12.681 206.356,14.802 222.600 C 15.595 228.673,18.910 244.994,20.140 248.881 C 20.440 249.826,20.910 251.410,21.185 252.400 C 26.084 270.042,37.668 294.005,47.965 307.800 C 54.167 316.107,55.903 318.305,59.743 322.703 C 83.468 349.879,115.294 370.299,148.400 379.588 C 149.390 379.866,150.650 380.248,151.200 380.437 C 151.750 380.626,154.540 381.333,157.400 382.007 C 164.721 383.732,165.597 383.923,167.400 384.190 C 168.280 384.320,170.530 384.676,172.400 384.981 C 175.614 385.505,178.707 385.858,188.314 386.798 C 193.657 387.320,210.152 387.316,215.123 386.790 C 228.674 385.359,236.766 384.098,244.800 382.168 C 247.990 381.402,251.050 380.621,251.600 380.434 C 252.150 380.246,253.410 379.867,254.400 379.591 C 278.685 372.816,304.703 358.526,324.768 340.941 C 399.321 275.604,410.629 165.068,350.870 85.800 C 349.211 83.600,347.752 81.710,347.626 81.600 C 347.501 81.490,346.051 79.780,344.404 77.800 C 331.489 62.271,312.443 46.559,293.325 35.663 C 289.333 33.388,275.106 26.400,274.466 26.400 C 274.248 26.400,272.641 25.788,270.893 25.040 C 265.808 22.863,251.066 18.073,245.400 16.756 C 244.300 16.500,243.229 16.136,243.020 15.946 C 242.811 15.756,242.057 15.600,241.344 15.600 C 240.631 15.600,239.936 15.420,239.800 15.200 C 239.664 14.980,238.674 14.800,237.600 14.800 C 236.526 14.800,235.536 14.620,235.400 14.400 C 235.264 14.180,234.274 14.000,233.200 14.000 C 232.126 14.000,231.136 13.820,231.000 13.600 C 230.864 13.380,229.503 13.200,227.976 13.200 C 226.392 13.200,225.200 13.028,225.200 12.800 C 225.200 12.565,223.808 12.400,221.824 12.400 C 219.967 12.400,218.336 12.220,218.200 12.000 C 218.043 11.746,213.632 11.623,206.076 11.664 L 194.200 11.727 203.400 12.037 C 214.611 12.415,225.359 13.324,230.600 14.337 C 231.700 14.550,233.320 14.840,234.200 14.983 C 235.080 15.125,236.430 15.399,237.200 15.591 C 237.970 15.783,239.680 16.159,241.000 16.427 C 299.484 28.280,354.158 74.428,375.080 129.600 C 395.934 184.593,392.276 243.170,365.044 290.300 C 364.250 291.675,363.005 293.835,362.278 295.100 C 349.610 317.139,328.507 339.466,306.000 354.645 C 265.313 382.085,216.563 392.271,167.400 383.606 C 148.233 380.227,123.330 371.029,107.659 361.539 C 106.262 360.692,105.053 360.000,104.973 360.000 C 104.892 360.000,102.706 358.613,100.113 356.918 C 51.226 324.953,20.798 274.892,14.824 216.600 C 13.882 207.410,14.056 188.154,15.162 179.200 C 15.987 172.519,16.420 169.607,17.183 165.600 C 31.442 90.745,87.261 33.185,161.900 16.372 C 165.831 15.487,167.039 15.232,168.400 15.001 C 169.170 14.871,170.790 14.592,172.000 14.382 C 176.126 13.665,179.796 13.234,185.600 12.784 C 193.728 12.153,195.395 11.691,189.724 11.640 C 187.125 11.617,185.143 11.768,185.000 12.000 M282.983 99.952 C 281.202 100.761,279.582 102.484,278.373 104.853 C 277.502 106.560,275.592 106.924,272.397 105.992 C 264.739 103.759,254.743 103.209,253.937 104.978 L 253.492 105.955 252.824 105.130 C 251.296 103.243,241.362 105.916,234.402 110.088 C 216.929 120.561,205.839 137.554,201.307 160.800 C 199.781 168.632,199.689 186.670,201.136 194.400 C 205.134 215.745,217.088 229.212,234.129 231.568 C 241.373 232.569,250.100 231.872,251.446 230.184 C 252.276 229.142,252.355 229.123,253.246 229.747 C 256.230 231.837,267.001 227.716,273.800 221.882 C 288.713 209.086,297.281 187.757,289.206 183.530 C 284.621 181.130,280.124 184.071,277.782 191.001 C 274.035 202.088,266.927 209.354,257.071 212.173 C 255.020 212.760,254.666 213.015,254.099 214.319 C 253.579 215.516,253.424 215.646,253.294 215.000 C 253.046 213.772,252.021 213.200,250.071 213.200 C 246.800 213.200,244.906 211.325,244.013 207.200 C 243.336 204.075,243.630 130.451,244.327 128.353 C 245.175 125.804,246.500 124.251,248.741 123.181 C 249.914 122.621,251.206 121.723,251.610 121.186 L 252.347 120.210 253.273 121.040 C 253.836 121.544,255.281 122.060,256.955 122.355 C 264.300 123.648,273.026 133.331,275.128 142.517 C 276.686 149.332,277.836 151.805,280.114 153.238 C 283.869 155.601,289.628 151.765,291.752 145.486 C 292.804 142.379,292.704 104.908,291.638 102.562 C 290.221 99.442,286.547 98.333,282.983 99.952 M289.422 100.651 C 291.756 102.181,291.788 102.461,291.927 122.800 C 292.087 146.174,291.695 148.303,286.771 150.815 C 281.807 153.347,279.538 151.339,276.447 141.681 C 272.476 129.275,264.699 120.000,258.268 120.000 C 256.414 120.000,254.462 119.262,253.992 118.384 C 253.117 116.750,253.824 106.244,254.898 104.900 C 255.851 103.708,263.451 104.418,272.988 106.590 C 276.489 107.387,277.814 107.124,278.662 105.467 C 281.286 100.336,285.835 98.301,289.422 100.651 M252.355 105.516 C 252.830 106.403,253.401 116.345,253.056 117.719 C 252.885 118.401,251.743 119.435,249.502 120.937 C 242.819 125.417,243.213 122.392,243.206 169.267 C 243.200 206.532,243.221 207.582,243.993 209.383 C 245.223 212.252,246.943 213.599,249.389 213.606 C 252.675 213.616,252.600 213.436,252.600 221.271 L 252.600 228.173 250.600 228.926 C 248.014 229.899,235.901 229.715,232.600 228.652 C 231.500 228.298,230.164 228.007,229.630 228.004 C 226.952 227.992,217.443 221.879,213.955 217.927 C 211.629 215.291,208.000 210.138,208.000 209.470 C 208.000 209.260,207.467 208.222,206.815 207.163 C 202.028 199.383,199.550 176.283,201.954 161.859 C 204.201 148.372,209.550 135.221,215.985 127.360 C 216.543 126.678,217.627 125.328,218.393 124.360 C 225.643 115.198,238.560 106.870,247.800 105.401 C 252.119 104.714,251.923 104.709,252.355 105.516 M183.037 115.617 C 181.705 116.015,179.514 118.009,178.354 119.879 C 177.240 121.675,176.588 121.757,172.345 120.632 C 163.632 118.323,153.658 118.395,153.579 120.768 C 153.563 121.239,153.398 121.171,152.930 120.500 C 151.329 118.205,138.438 122.427,130.065 127.989 C 112.410 139.716,104.200 167.311,112.965 185.470 C 116.595 192.991,126.345 200.815,136.044 203.991 C 137.450 204.451,138.960 204.988,139.400 205.184 C 139.840 205.380,142.180 206.120,144.600 206.828 C 156.904 210.428,161.200 213.602,161.200 219.088 C 161.200 222.765,159.190 225.054,153.461 227.903 C 151.577 228.840,149.871 229.901,149.670 230.262 C 149.330 230.869,149.233 230.869,148.362 230.259 C 147.845 229.896,146.933 229.600,146.336 229.600 C 137.722 229.600,130.474 221.787,125.192 206.809 C 122.496 199.166,119.702 197.222,115.169 199.835 C 110.255 202.667,109.629 205.794,109.567 227.831 L 109.517 245.462 110.525 247.452 C 112.759 251.861,116.749 251.666,121.498 246.917 L 124.104 244.311 125.963 244.557 C 126.986 244.693,129.201 245.242,130.886 245.776 C 137.303 247.813,144.223 248.116,146.876 246.477 C 147.898 245.845,148.374 245.754,148.954 246.078 C 150.601 247.000,158.179 245.011,164.600 241.972 C 182.546 233.477,194.800 214.637,194.800 195.540 C 194.800 184.913,191.869 178.249,183.395 169.610 C 177.459 163.558,177.841 163.734,154.400 156.229 C 146.209 153.606,143.241 150.834,143.098 145.673 C 143.006 142.376,144.278 140.234,147.294 138.606 C 148.556 137.925,150.189 136.786,150.923 136.074 C 152.245 134.793,152.265 134.788,152.975 135.573 C 153.393 136.035,154.465 136.471,155.546 136.620 C 158.642 137.045,164.315 138.692,166.066 139.674 C 168.036 140.778,172.905 149.237,174.398 154.151 C 176.687 161.682,177.443 162.755,180.889 163.367 C 184.231 163.962,188.854 160.262,190.468 155.703 C 191.487 152.825,191.216 120.667,190.154 118.371 C 188.893 115.644,186.300 114.641,183.037 115.617 M187.934 116.517 C 190.147 117.594,190.190 117.951,190.320 136.400 C 190.467 157.202,190.148 158.655,184.999 160.621 C 180.559 162.317,178.011 160.488,176.224 154.320 C 174.652 148.898,169.591 139.128,167.518 137.517 C 166.155 136.458,159.461 134.400,157.377 134.400 C 153.742 134.400,152.437 128.877,154.237 121.110 C 154.713 119.056,164.424 118.996,171.879 121.001 C 176.828 122.331,177.376 122.220,179.366 119.472 C 181.993 115.846,184.664 114.925,187.934 116.517 M151.972 120.566 C 152.253 120.905,152.533 123.350,152.670 126.666 C 152.939 133.181,152.903 133.260,148.416 136.190 C 142.678 139.935,141.097 144.260,143.492 149.655 C 145.208 153.522,147.154 154.485,164.400 160.009 C 177.554 164.222,180.570 166.216,188.136 175.698 C 196.240 185.856,196.151 206.105,187.945 218.906 C 187.425 219.717,186.280 221.510,185.400 222.890 C 181.923 228.344,174.591 234.839,167.600 238.658 C 160.844 242.348,150.613 245.024,149.674 243.346 C 149.344 242.756,149.228 242.772,148.491 243.509 C 146.473 245.527,138.940 245.509,132.200 243.471 C 130.440 242.938,128.140 242.378,127.088 242.225 L 125.177 241.947 122.488 244.524 C 117.458 249.345,113.592 249.599,111.357 245.256 C 110.411 243.418,109.954 212.720,110.801 207.893 C 111.885 201.706,117.141 197.866,121.225 200.278 C 122.387 200.965,123.799 203.968,125.419 209.200 C 126.959 214.171,132.302 222.674,136.316 226.540 C 138.045 228.204,140.741 229.282,145.172 230.080 C 148.193 230.624,148.251 230.679,148.632 233.381 C 148.940 235.562,148.905 235.606,149.968 231.704 C 150.404 230.102,150.612 229.919,153.762 228.373 C 160.927 224.855,163.606 220.329,162.011 214.433 C 160.811 209.996,158.500 208.712,141.400 202.983 C 117.212 194.880,107.778 181.624,110.998 160.264 C 113.243 145.369,120.740 134.376,134.423 125.915 C 136.672 124.525,144.713 121.523,149.000 120.474 C 151.249 119.924,151.444 119.930,151.972 120.566 M289.032 183.954 C 299.910 190.588,280.500 220.778,261.335 227.034 C 254.253 229.346,254.182 229.292,254.265 221.642 C 254.347 214.008,254.449 213.778,258.400 212.322 C 267.699 208.894,273.834 202.906,277.171 194.000 C 280.808 184.292,284.483 181.180,289.032 183.954 M126.000 270.500 C 122.176 273.110,122.470 277.429,126.630 279.754 C 128.802 280.968,128.800 280.968,128.800 280.262 C 128.800 279.500,127.487 278.407,126.143 278.050 C 125.049 277.759,124.193 276.000,125.146 276.000 C 125.387 276.000,125.478 275.094,125.374 273.723 C 125.176 271.127,125.427 270.815,127.724 270.806 C 128.636 270.802,129.148 270.640,129.000 270.400 C 128.602 269.757,130.929 269.935,131.911 270.623 C 133.539 271.763,132.708 273.815,130.819 273.321 C 130.165 273.150,129.717 273.299,129.340 273.814 C 128.618 274.802,128.652 275.031,129.661 275.971 C 130.343 276.607,130.423 276.890,130.048 277.342 C 129.511 277.989,130.015 280.978,130.792 281.748 C 131.131 282.085,131.199 282.047,131.057 281.600 C 130.169 278.801,130.959 277.970,132.019 280.586 C 132.302 281.284,132.353 281.299,132.375 280.687 C 132.389 280.295,132.130 279.328,131.800 278.538 C 131.036 276.710,131.042 276.665,132.001 276.916 C 133.274 277.249,132.588 276.606,130.819 275.809 C 128.742 274.872,128.756 274.357,130.857 274.493 C 132.685 274.611,133.543 273.421,133.049 271.451 C 132.557 269.494,128.313 268.921,126.000 270.500 M149.054 270.429 C 148.014 271.247,148.000 271.326,148.000 276.349 C 148.000 279.878,147.847 281.599,147.500 281.959 C 147.096 282.378,147.153 282.450,147.800 282.333 C 148.560 282.196,148.594 281.919,148.487 276.851 C 148.361 270.947,148.484 270.571,150.673 270.160 C 151.748 269.958,152.355 270.099,153.333 270.778 L 154.600 271.658 153.478 270.629 C 152.112 269.377,150.485 269.304,149.054 270.429 M157.712 270.500 C 156.793 271.499,156.198 275.066,157.071 274.341 C 157.338 274.119,157.612 273.202,157.679 272.302 C 157.787 270.838,157.946 270.614,159.200 270.164 C 160.465 269.709,160.501 269.658,159.570 269.630 C 158.983 269.613,158.183 269.987,157.712 270.500 M163.500 270.229 C 162.203 270.932,162.083 271.208,163.200 270.916 C 163.814 270.755,164.000 270.904,164.000 271.553 C 164.000 272.816,165.125 272.592,165.273 271.300 C 165.429 269.945,167.661 269.573,169.657 270.568 C 170.415 270.946,171.127 271.056,171.493 270.852 C 171.925 270.610,171.587 270.391,170.268 270.059 C 167.786 269.434,164.828 269.508,163.500 270.229 M176.739 270.300 C 175.937 271.261,175.118 273.252,175.407 273.540 C 175.716 273.850,176.386 272.779,176.394 271.962 C 176.404 270.941,177.920 269.760,178.489 270.329 C 179.237 271.077,180.628 270.957,180.000 270.200 C 179.324 269.385,177.456 269.442,176.739 270.300 M191.000 270.167 C 186.185 272.316,184.681 280.195,188.338 284.115 C 190.656 286.599,196.729 286.774,198.004 284.393 C 198.697 283.098,198.502 280.799,197.700 280.806 C 197.147 280.811,197.116 280.886,197.550 281.161 C 197.972 281.428,198.016 281.871,197.737 283.055 L 197.372 284.600 194.383 284.715 C 192.304 284.795,191.162 284.661,190.632 284.273 C 189.710 283.599,190.035 282.400,191.138 282.400 C 192.461 282.400,192.975 281.376,192.185 280.317 C 191.737 279.715,191.583 279.641,191.738 280.100 C 192.000 280.874,191.701 280.978,190.819 280.420 C 190.136 279.988,189.881 275.459,190.470 274.200 C 190.817 273.459,190.803 273.451,190.277 274.101 C 189.511 275.049,189.120 278.726,189.606 280.420 C 190.104 282.157,190.099 282.259,189.551 281.711 C 189.304 281.464,188.836 281.365,188.511 281.490 C 187.499 281.878,187.174 280.716,187.424 277.600 C 187.725 273.826,187.903 273.200,188.674 273.200 C 189.103 273.200,189.227 273.454,189.078 274.025 C 188.887 274.752,188.977 274.726,189.831 273.804 C 190.364 273.229,190.803 272.453,190.806 272.079 C 190.818 270.781,191.520 270.302,193.853 270.005 L 196.200 269.705 194.200 269.668 C 193.100 269.648,191.660 269.872,191.000 270.167 M199.600 269.888 C 200.150 269.987,200.771 270.232,200.980 270.434 C 201.670 271.098,202.574 270.891,202.000 270.200 C 201.705 269.845,200.911 269.622,200.051 269.654 C 198.958 269.695,198.847 269.753,199.600 269.888 M205.836 270.831 C 205.266 271.508,204.800 272.228,204.800 272.431 C 204.800 273.130,205.220 272.798,205.600 271.800 C 206.026 270.681,206.707 270.492,207.054 271.398 C 207.353 272.175,208.000 271.769,208.000 270.804 C 208.000 270.346,208.349 269.988,208.900 269.882 C 209.472 269.772,209.267 269.689,208.336 269.654 C 207.155 269.611,206.670 269.839,205.836 270.831 M212.135 269.868 C 212.421 270.154,216.861 270.072,217.158 269.776 C 217.254 269.679,216.103 269.600,214.600 269.600 C 213.097 269.600,211.987 269.721,212.135 269.868 M223.975 270.113 C 222.829 271.006,221.864 277.600,222.879 277.600 C 223.350 277.600,223.700 275.779,223.753 273.067 C 223.799 270.673,223.832 270.601,225.000 270.351 C 226.977 269.928,231.191 269.970,232.126 270.422 C 232.970 270.830,232.974 270.823,232.224 270.222 C 231.253 269.444,224.939 269.361,223.975 270.113 M235.400 270.006 C 234.856 270.244,235.497 270.339,237.400 270.304 C 238.940 270.275,240.920 270.384,241.800 270.546 L 243.400 270.841 242.054 270.221 C 240.611 269.555,236.719 269.429,235.400 270.006 M252.982 270.582 C 252.036 271.528,252.000 271.765,251.987 277.082 C 251.969 284.261,251.895 284.372,246.875 284.636 C 242.803 284.851,242.080 284.494,242.791 282.623 C 243.295 281.298,243.327 279.200,242.843 279.200 C 242.409 279.200,242.000 280.188,242.000 281.233 C 242.000 282.152,241.367 282.225,240.543 281.400 C 239.621 280.478,238.473 280.570,239.297 281.500 C 239.638 281.885,240.251 282.904,240.658 283.764 C 241.675 285.907,242.381 286.277,244.415 285.734 C 245.569 285.426,246.395 285.418,247.162 285.708 C 248.660 286.273,250.144 285.825,250.794 284.611 C 251.441 283.403,252.000 283.299,252.000 284.386 C 252.000 284.818,252.348 285.358,252.774 285.586 C 254.609 286.568,256.420 285.606,256.375 283.671 C 256.350 282.612,256.345 282.610,255.979 283.524 C 255.670 284.294,255.361 284.428,254.138 284.324 L 252.668 284.200 252.564 279.800 C 252.356 270.944,253.145 269.076,256.566 270.325 C 257.690 270.736,257.731 270.724,257.024 270.188 C 255.844 269.295,254.099 269.465,252.982 270.582 M261.854 270.429 C 261.013 271.090,260.801 271.596,260.806 272.929 C 260.811 274.155,260.915 274.440,261.200 274.000 C 261.413 273.670,261.591 272.941,261.594 272.380 C 261.601 271.193,262.267 270.400,263.256 270.400 C 263.639 270.400,264.064 270.220,264.200 270.000 C 264.651 269.271,262.926 269.586,261.854 270.429 M269.400 269.797 C 269.180 269.870,268.525 270.034,267.944 270.162 C 267.363 270.289,266.774 270.690,266.635 271.053 C 266.420 271.614,266.476 271.634,267.011 271.191 C 267.547 270.746,267.674 270.797,267.867 271.534 C 267.991 272.010,268.312 272.400,268.579 272.400 C 268.937 272.400,269.042 273.596,268.976 276.946 C 268.885 281.519,269.118 282.745,269.975 282.216 C 270.326 281.999,270.323 281.790,269.965 281.358 C 269.652 280.980,269.578 280.051,269.747 278.613 C 269.888 277.417,269.819 275.146,269.595 273.567 C 269.299 271.475,269.312 270.548,269.643 270.148 C 270.108 269.587,270.093 269.565,269.400 269.797 M271.705 269.887 C 272.314 269.979,273.214 269.977,273.705 269.882 C 274.197 269.787,273.700 269.711,272.600 269.714 C 271.500 269.717,271.097 269.795,271.705 269.887 M279.700 269.880 C 281.499 270.035,281.600 270.106,281.600 271.222 C 281.600 271.898,281.813 272.400,282.100 272.400 C 282.477 272.399,282.566 273.440,282.462 276.638 C 282.330 280.727,282.361 280.916,283.345 281.943 C 284.474 283.121,284.321 283.745,282.758 284.340 C 281.146 284.953,280.641 284.368,280.935 282.224 C 281.080 281.165,280.979 279.587,280.701 278.544 C 280.241 276.825,280.266 276.676,281.137 275.971 C 282.183 275.124,282.017 273.618,280.873 273.575 C 280.503 273.561,278.670 273.398,276.800 273.213 C 274.097 272.944,273.216 272.993,272.500 273.447 C 271.024 274.384,271.465 274.684,273.845 274.362 C 279.424 273.604,279.961 274.257,279.915 281.743 C 279.892 285.555,280.104 285.982,282.024 285.994 C 284.094 286.006,284.481 285.282,284.603 281.172 C 284.670 278.935,284.611 278.120,284.458 279.169 C 284.085 281.729,283.313 281.701,283.129 279.120 C 282.547 270.934,283.193 269.366,286.729 270.380 C 287.717 270.663,288.013 270.638,287.894 270.280 C 287.783 269.944,286.242 269.787,282.767 269.758 C 280.035 269.735,278.655 269.790,279.700 269.880 M218.399 270.551 C 218.949 270.872,219.474 271.059,219.566 270.967 C 219.814 270.719,219.514 270.530,218.400 270.233 L 217.400 269.967 218.399 270.551 M233.852 271.700 C 233.489 273.053,233.563 284.523,233.938 285.114 C 234.847 286.545,238.475 285.855,238.368 284.271 C 238.346 283.940,238.277 283.948,238.135 284.300 C 237.874 284.948,235.340 284.950,234.940 284.303 C 234.567 283.699,234.427 281.247,234.425 275.300 C 234.424 270.790,234.302 270.022,233.852 271.700 M243.953 271.474 C 244.199 271.954,244.381 272.764,244.357 273.274 C 244.317 274.151,244.292 274.142,243.880 273.100 C 243.434 271.970,241.558 271.467,241.640 272.500 C 241.734 273.676,242.318 275.033,242.372 274.200 C 242.421 273.446,242.449 273.442,242.846 274.124 C 243.077 274.523,243.166 275.112,243.042 275.434 C 242.862 275.905,242.972 275.936,243.609 275.595 C 244.320 275.215,244.404 275.305,244.436 276.486 L 244.472 277.800 244.874 276.400 C 245.391 274.602,245.052 272.071,244.184 271.245 C 243.554 270.645,243.538 270.661,243.953 271.474 M143.228 271.876 C 143.213 272.358,143.380 272.864,143.600 273.000 C 144.073 273.292,144.073 272.901,143.600 271.800 C 143.269 271.029,143.255 271.031,143.228 271.876 M173.200 272.324 C 173.200 273.192,173.392 273.600,173.800 273.600 C 174.555 273.600,174.550 272.832,173.787 271.824 C 173.231 271.089,173.200 271.115,173.200 272.324 M140.253 271.881 C 139.737 272.396,140.032 272.714,141.179 272.882 C 141.827 272.977,142.267 272.909,142.157 272.730 C 141.823 272.190,140.523 271.610,140.253 271.881 M225.623 271.800 C 225.371 272.984,225.447 280.000,225.713 280.000 C 226.337 280.000,226.418 278.886,226.067 275.179 C 225.870 273.100,225.670 271.580,225.623 271.800 M201.200 273.400 C 201.200 274.847,201.732 275.276,202.156 274.171 C 202.378 273.591,201.814 272.000,201.386 272.000 C 201.284 272.000,201.200 272.630,201.200 273.400 M218.406 273.300 C 218.411 274.286,218.506 274.455,218.800 274.000 C 219.123 273.500,219.189 273.530,219.194 274.180 C 219.198 274.759,219.316 274.844,219.651 274.509 C 220.250 273.910,219.749 272.000,218.992 272.000 C 218.589 272.000,218.402 272.416,218.406 273.300 M232.164 272.685 C 231.864 273.161,231.191 273.379,229.999 273.387 C 228.982 273.395,228.200 273.606,228.101 273.900 C 227.807 274.776,231.353 274.536,232.179 273.623 C 232.566 273.196,232.818 272.655,232.740 272.421 C 232.662 272.187,232.403 272.306,232.164 272.685 M263.073 272.261 C 262.465 272.868,263.015 277.361,263.649 276.970 C 263.842 276.850,263.997 275.908,263.994 274.876 C 263.988 272.967,263.565 271.768,263.073 272.261 M161.320 274.400 C 161.320 275.610,161.395 276.105,161.487 275.500 C 161.578 274.895,161.578 273.905,161.487 273.300 C 161.395 272.695,161.320 273.190,161.320 274.400 M162.130 276.969 C 162.169 280.428,162.049 281.784,161.692 281.903 C 161.421 281.993,161.200 282.242,161.200 282.457 C 161.200 282.672,161.360 282.748,161.556 282.627 C 161.752 282.506,162.030 283.033,162.173 283.799 C 162.780 287.032,170.751 286.666,173.978 283.256 L 175.356 281.800 175.686 283.369 C 176.316 286.362,180.400 287.260,180.400 284.405 C 180.400 283.672,180.348 283.667,179.242 284.302 C 177.741 285.163,176.800 284.488,176.800 282.551 C 176.800 281.340,176.684 281.200,175.688 281.200 C 174.604 281.200,174.564 281.118,174.061 277.900 C 173.491 274.252,173.036 273.408,172.229 274.500 C 171.524 275.454,171.319 275.391,170.600 274.000 C 169.673 272.208,168.209 272.533,167.002 274.800 C 166.743 275.288,166.784 275.306,167.221 274.900 C 169.343 272.931,171.908 277.529,170.229 280.292 L 169.556 281.400 170.493 280.300 C 171.008 279.695,171.558 279.200,171.715 279.200 C 171.872 279.200,172.021 279.695,172.047 280.300 L 172.095 281.400 172.400 280.200 C 172.568 279.540,172.739 278.100,172.781 277.000 C 172.881 274.356,173.532 275.728,173.572 278.666 C 173.596 280.448,173.440 280.883,172.437 281.830 C 171.797 282.434,171.366 283.166,171.478 283.458 C 171.784 284.256,169.905 284.801,166.874 284.794 C 162.859 284.785,163.091 285.221,162.403 276.400 L 162.076 272.200 162.130 276.969 M287.000 272.695 C 284.788 273.019,283.955 274.400,285.971 274.400 C 287.105 274.400,288.400 273.532,288.400 272.771 C 288.400 272.567,288.355 272.427,288.300 272.460 C 288.245 272.493,287.660 272.599,287.000 272.695 M159.028 273.154 C 158.904 273.356,158.846 274.964,158.901 276.727 C 159.057 281.788,156.876 283.757,154.400 280.791 C 152.748 278.811,152.058 279.175,151.919 282.100 L 151.800 284.600 148.601 284.719 C 144.508 284.870,143.811 284.675,143.202 283.205 C 142.672 281.926,142.581 281.886,140.400 281.978 C 139.365 282.021,138.710 282.371,137.887 283.318 L 136.775 284.600 131.119 284.650 C 125.652 284.698,125.432 284.668,124.504 283.741 C 123.339 282.575,123.459 281.531,124.802 281.157 C 125.685 280.912,125.702 280.875,124.949 280.840 C 123.288 280.762,122.362 283.791,123.675 285.008 C 125.135 286.362,130.021 286.460,131.380 285.163 C 131.942 284.626,132.779 284.721,133.457 285.400 C 134.583 286.526,137.600 285.798,137.600 284.400 C 137.600 282.125,141.749 282.284,142.844 284.600 L 143.411 285.800 147.275 285.842 C 152.056 285.894,152.077 285.881,152.370 282.536 L 152.610 279.800 153.749 281.600 C 154.376 282.590,155.148 283.813,155.465 284.318 C 156.271 285.600,157.684 286.148,159.369 285.832 C 161.400 285.451,161.141 284.873,158.800 284.562 C 156.392 284.243,155.760 282.834,158.073 282.941 C 159.689 283.016,159.906 282.345,159.960 277.124 C 159.996 273.626,159.649 272.149,159.028 273.154 M164.836 277.700 C 164.802 282.545,164.840 282.800,165.600 282.800 C 166.530 282.800,166.567 282.553,165.837 281.235 C 165.483 280.597,165.367 279.446,165.493 277.835 C 165.598 276.496,165.502 274.770,165.278 274.000 C 164.948 272.862,164.865 273.555,164.836 277.700 M193.793 273.299 C 193.357 273.504,192.560 274.241,192.023 274.936 L 191.045 276.200 192.100 275.251 C 192.958 274.480,193.402 274.356,194.478 274.590 C 195.205 274.749,196.489 274.878,197.331 274.877 C 199.370 274.876,201.600 279.201,201.600 283.155 C 201.600 285.662,201.900 285.980,204.277 285.995 C 205.204 286.000,206.408 284.640,206.388 283.611 C 206.378 283.118,206.297 283.135,205.968 283.700 C 205.538 284.438,203.787 284.633,202.861 284.046 C 202.162 283.603,202.451 282.172,203.215 282.293 C 204.715 282.532,206.520 277.176,205.100 276.698 C 204.203 276.397,203.200 276.877,203.200 277.609 C 203.200 278.128,203.420 278.268,204.000 278.116 C 204.955 277.866,205.007 278.312,204.202 279.854 C 203.874 280.484,203.604 280.753,203.602 280.451 C 203.600 280.011,203.482 280.000,203.007 280.394 C 202.314 280.969,201.893 280.148,201.413 277.291 C 201.097 275.407,200.644 275.055,196.776 273.696 C 195.237 273.155,194.349 273.037,193.793 273.299 M210.400 279.105 L 210.600 285.344 211.800 285.693 C 214.601 286.507,220.797 285.227,221.378 283.714 C 221.656 282.990,221.016 283.074,219.200 284.000 C 218.079 284.572,216.842 284.800,214.865 284.800 C 211.674 284.800,211.199 284.456,211.230 282.164 C 211.312 275.942,211.180 273.681,210.710 273.290 C 210.299 272.948,210.239 274.073,210.400 279.105 M213.100 273.031 C 212.935 273.197,212.800 273.699,212.800 274.147 C 212.800 274.735,212.921 274.839,213.238 274.522 C 213.478 274.282,213.613 273.780,213.538 273.407 C 213.462 273.033,213.265 272.864,213.100 273.031 M221.003 274.775 C 220.854 275.861,220.882 277.017,221.066 277.343 C 221.277 277.719,221.436 276.994,221.499 275.368 C 221.616 272.310,221.381 272.028,221.003 274.775 M178.400 277.536 C 178.400 281.756,178.426 281.884,179.386 282.321 C 179.928 282.568,180.459 282.628,180.566 282.454 C 180.914 281.893,180.323 280.400,179.753 280.400 C 179.155 280.400,179.058 279.573,179.473 278.021 C 179.715 277.115,179.757 277.100,180.039 277.821 C 180.272 278.416,180.349 278.269,180.366 277.200 C 180.380 276.276,180.271 275.984,180.045 276.340 C 179.814 276.706,179.614 276.286,179.427 275.040 C 178.935 271.762,178.400 273.063,178.400 277.536 M208.911 273.700 C 208.439 274.310,207.958 275.600,208.202 275.600 C 208.300 275.600,208.659 275.060,209.000 274.400 C 209.639 273.165,209.594 272.817,208.911 273.700 M126.134 274.992 C 126.235 276.564,126.817 277.340,127.742 277.138 C 128.296 277.016,128.280 276.802,127.604 275.300 C 126.677 273.240,126.014 273.101,126.134 274.992 M215.466 273.900 C 215.229 274.291,216.240 275.226,216.557 274.909 C 216.691 274.776,216.800 274.427,216.800 274.133 C 216.800 273.570,215.774 273.390,215.466 273.900 M236.577 277.264 C 236.594 280.122,236.720 281.030,237.059 280.750 C 237.311 280.541,237.425 280.016,237.311 279.583 C 237.198 279.150,237.311 278.548,237.563 278.245 C 237.914 277.822,237.884 277.641,237.433 277.468 C 237.062 277.325,236.792 276.536,236.699 275.321 C 236.619 274.265,236.564 275.139,236.577 277.264 M238.871 274.114 C 238.548 274.503,238.634 274.629,239.222 274.629 C 239.650 274.629,240.000 274.397,240.000 274.114 C 240.000 273.831,239.842 273.600,239.649 273.600 C 239.456 273.600,239.106 273.831,238.871 274.114 M149.849 274.615 C 149.475 275.591,149.549 277.521,149.971 277.782 C 150.499 278.108,150.825 276.812,150.569 275.409 C 150.299 273.934,150.167 273.788,149.849 274.615 M257.606 274.500 C 257.620 275.642,258.388 276.226,258.394 275.100 C 258.397 274.495,258.220 274.000,258.000 274.000 C 257.780 274.000,257.603 274.225,257.606 274.500 M253.832 275.498 C 253.485 276.592,254.200 278.178,254.588 277.174 C 254.720 276.830,254.668 276.112,254.471 275.580 L 254.113 274.613 253.832 275.498 M135.677 276.538 C 135.415 277.264,135.200 278.144,135.200 278.495 C 135.200 278.846,134.984 279.205,134.720 279.293 C 134.355 279.415,134.352 279.523,134.708 279.743 C 135.009 279.929,135.264 279.633,135.421 278.916 C 135.555 278.302,135.855 277.299,136.086 276.687 C 136.318 276.075,136.428 275.495,136.331 275.397 C 136.233 275.300,135.939 275.813,135.677 276.538 M212.988 276.950 C 212.998 278.531,213.075 278.692,213.577 278.192 C 214.079 277.692,214.078 277.458,213.565 276.375 L 212.977 275.133 212.988 276.950 M273.766 275.617 C 274.407 275.809,275.079 276.199,275.260 276.483 C 275.501 276.863,275.589 276.871,275.594 276.514 C 275.601 275.917,274.309 275.188,273.326 275.234 C 272.901 275.255,273.083 275.413,273.766 275.617 M166.524 277.800 C 166.526 279.120,166.601 279.612,166.690 278.893 C 166.779 278.174,166.777 277.094,166.686 276.493 C 166.595 275.892,166.522 276.480,166.524 277.800 M142.586 278.428 C 142.598 280.560,142.699 280.859,143.471 281.053 C 143.950 281.174,144.439 281.526,144.559 281.836 C 144.882 282.679,145.600 282.516,145.600 281.600 C 145.600 281.160,145.443 280.800,145.251 280.800 C 145.059 280.800,144.793 280.115,144.659 279.277 C 144.525 278.439,144.000 277.364,143.494 276.888 L 142.572 276.022 142.586 278.428 M207.100 277.014 C 206.715 277.529,206.408 278.277,206.418 278.675 C 206.429 279.126,206.742 278.818,207.247 277.862 C 208.186 276.082,208.113 275.660,207.100 277.014 M258.934 277.646 C 259.074 278.171,259.192 278.735,259.195 278.900 C 259.198 279.065,259.392 279.200,259.627 279.200 C 260.250 279.200,259.899 277.094,259.239 276.877 C 258.821 276.740,258.744 276.935,258.934 277.646 M224.493 278.400 C 224.493 279.170,224.575 279.485,224.676 279.100 C 224.776 278.715,224.776 278.085,224.676 277.700 C 224.575 277.315,224.493 277.630,224.493 278.400 M231.570 277.532 C 231.465 277.825,230.773 278.188,230.033 278.340 C 227.875 278.781,227.148 280.264,229.185 280.070 C 230.919 279.905,232.152 278.848,231.916 277.730 C 231.811 277.233,231.701 277.170,231.570 277.532 M136.795 278.100 C 136.792 278.375,136.673 279.033,136.532 279.563 C 136.361 280.199,136.419 280.435,136.703 280.260 C 136.939 280.114,137.212 280.221,137.311 280.498 C 137.682 281.536,138.041 280.424,137.781 279.041 C 137.528 277.689,136.807 277.002,136.795 278.100 M266.238 279.665 C 266.365 280.845,266.269 281.634,265.976 281.815 C 265.639 282.023,265.661 282.202,266.057 282.480 C 266.440 282.749,266.465 282.917,266.141 283.050 C 265.449 283.335,266.650 285.498,267.681 285.826 C 268.925 286.221,275.751 285.601,276.094 285.062 C 276.510 284.408,276.458 282.709,276.000 282.000 C 275.721 281.567,275.639 281.846,275.706 283.000 L 275.800 284.600 272.000 284.702 C 267.360 284.826,267.502 284.925,266.696 281.000 C 266.334 279.240,266.128 278.639,266.238 279.665 M275.200 278.400 C 275.200 278.620,274.204 278.800,272.987 278.800 C 270.647 278.800,270.013 279.308,270.619 280.700 C 270.909 281.367,270.932 281.367,271.091 280.700 C 271.215 280.183,271.663 280.000,272.801 280.000 C 273.669 280.000,274.617 279.725,274.971 279.371 C 275.576 278.767,275.816 278.000,275.400 278.000 C 275.290 278.000,275.200 278.180,275.200 278.400 M163.693 279.600 C 163.693 280.370,163.775 280.685,163.876 280.300 C 163.976 279.915,163.976 279.285,163.876 278.900 C 163.775 278.515,163.693 278.830,163.693 279.600 M215.771 278.702 C 214.938 279.280,214.801 280.325,215.585 280.120 C 215.983 280.016,216.431 280.126,216.578 280.365 C 216.902 280.889,217.600 280.943,217.600 280.444 C 217.600 279.749,216.193 278.409,215.771 278.702 M144.000 280.224 C 144.000 280.541,143.820 280.800,143.600 280.800 C 143.380 280.800,143.200 280.429,143.200 279.976 C 143.200 279.523,143.380 279.264,143.600 279.400 C 143.820 279.536,144.000 279.907,144.000 280.224 M219.462 279.931 C 219.098 280.334,218.811 280.919,218.825 281.231 C 218.839 281.544,219.053 281.350,219.300 280.800 L 219.750 279.800 219.902 280.907 C 220.098 282.332,220.800 281.918,220.800 280.376 C 220.800 279.023,220.403 278.891,219.462 279.931 M255.796 279.607 C 255.658 279.830,255.377 279.909,255.172 279.783 C 254.968 279.656,254.800 279.743,254.800 279.976 C 254.800 280.209,254.986 280.400,255.213 280.400 C 255.440 280.400,255.789 280.805,255.988 281.300 C 256.335 282.165,256.350 282.157,256.375 281.100 C 256.413 279.423,256.891 279.756,258.575 282.635 C 260.295 285.575,261.271 286.226,263.369 285.832 C 265.406 285.450,265.139 284.872,262.781 284.560 C 260.462 284.252,260.009 283.041,262.203 283.015 C 263.310 283.001,263.409 282.880,263.521 281.400 C 263.640 279.833,263.629 279.819,262.998 280.700 C 262.644 281.195,262.095 281.600,261.777 281.600 C 261.460 281.600,261.200 281.780,261.200 282.000 C 261.200 282.793,260.339 282.371,258.753 280.800 C 257.133 279.197,256.266 278.847,255.796 279.607 M212.794 280.220 C 212.789 280.870,212.723 280.900,212.400 280.400 C 212.066 279.883,212.011 279.893,212.006 280.476 C 211.997 281.439,212.621 281.698,213.218 280.979 C 213.603 280.515,213.614 280.254,213.263 279.903 C 212.912 279.552,212.799 279.629,212.794 280.220 M248.142 280.710 C 247.250 280.850,245.557 282.400,246.295 282.400 C 246.526 282.400,246.818 282.130,246.945 281.800 C 247.231 281.055,249.997 280.983,250.801 281.700 C 251.273 282.121,251.283 282.096,250.868 281.543 C 250.305 280.795,249.386 280.514,248.142 280.710 M238.093 282.400 C 238.093 283.170,238.175 283.485,238.276 283.100 C 238.376 282.715,238.376 282.085,238.276 281.700 C 238.175 281.315,238.093 281.630,238.093 282.400 M222.400 283.524 C 222.400 285.557,227.400 286.840,231.408 285.834 C 233.594 285.285,232.355 284.733,229.100 284.806 C 227.285 284.847,225.498 284.862,225.129 284.840 C 224.279 284.789,223.119 283.654,223.420 283.168 C 223.545 282.965,223.367 282.800,223.024 282.800 C 222.681 282.800,222.400 283.126,222.400 283.524 " stroke="none" fill="#a29899" fill-rule="evenodd"></path></g></svg>